<?xml version="1.0" encoding="utf-8"?>
<!-- Generator: Adobe Illustrator 16.0.0, SVG Export Plug-In . SVG Version: 6.00 Build 0)  -->
<!DOCTYPE svg PUBLIC "-//W3C//DTD SVG 1.1//EN" "http://www.w3.org/Graphics/SVG/1.1/DTD/svg11.dtd">
<svg version="1.1" id="Camada_1" xmlns="http://www.w3.org/2000/svg" xmlns:xlink="http://www.w3.org/1999/xlink" x="0px" y="0px"
	 width="95.46" height="32.333px" viewBox="0 0 286.39 97" enable-background="new 0 0 286.39 97" xml:space="preserve">
<g>
	<g>
		<g>
			<g>
				<path fill="#3289C5" d="M59.273,32.456c0-4.355-3.619-7.89-8.076-7.89c-4.458,0-8.077,3.534-8.077,7.89
					c0,4.356,3.618,7.891,8.077,7.891C55.654,40.347,59.273,36.812,59.273,32.456" />
			</g>
			<defs>
				<filter id="Adobe_OpacityMaskFilter" filterUnits="userSpaceOnUse" x="43.12" y="24.566" width="16.153" height="15.781">

						<feColorMatrix  type="matrix" values="-1 0 0 0 1  0 -1 0 0 1  0 0 -1 0 1  0 0 0 1 0" color-interpolation-filters="sRGB" result="source" />
				</filter>
			</defs>
			<mask maskUnits="userSpaceOnUse" x="43.12" y="24.566" width="16.153" height="15.781" id="SVGID_1_">
				<g filter="url(#Adobe_OpacityMaskFilter)">

						<image overflow="visible" width="84" height="83" xlink:href="D5F27BFE.jpg"  transform="matrix(0.24 0 0 0.24 41.1201 22.5664)">
					</image>
				</g>
			</mask>
			<g opacity="0.2" mask="url(#SVGID_1_)">
				<path fill="#010202" d="M59.273,32.456c0-4.355-3.619-7.89-8.076-7.89c-4.458,0-8.077,3.534-8.077,7.89
					c0,4.356,3.618,7.891,8.077,7.891C55.654,40.347,59.273,36.812,59.273,32.456" />
			</g>
		</g>
		<g>
			<g>
				<path fill="#3289C5" d="M66.82,49.129c-0.152-4.249-3.72-7.615-8.071-7.615c-4.458,0-8.077,3.535-8.077,7.891
					c0,0.092,0.001,0.184,0.006,0.274v0.001c0.007,0.202,0.011,0.404,0.011,0.606c0,4.604-1.872,9.02-5.204,12.274v0.001
					c-1.515,1.479-2.365,3.486-2.365,5.579c0,4.355,3.617,7.89,8.076,7.89c2.142,0,4.195-0.83,5.71-2.31V73.72
					c6.361-6.216,9.935-14.645,9.935-23.434C66.842,49.9,66.834,49.515,66.82,49.129L66.82,49.129z" />
			</g>
			<defs>
				<filter id="Adobe_OpacityMaskFilter_1_" filterUnits="userSpaceOnUse" x="43.121" y="41.514" width="23.721" height="34.517">

						<feColorMatrix  type="matrix" values="-1 0 0 0 1  0 -1 0 0 1  0 0 -1 0 1  0 0 0 1 0" color-interpolation-filters="sRGB" result="source" />
				</filter>
			</defs>
			<mask maskUnits="userSpaceOnUse" x="43.121" y="41.514" width="23.721" height="34.517" id="SVGID_2_">
				<g filter="url(#Adobe_OpacityMaskFilter_1_)">

						<image overflow="visible" width="116" height="161" xlink:href="D5F27C02.jpg"  transform="matrix(0.24 0 0 0.24 41.1211 39.5137)">
					</image>
				</g>
			</mask>
			<g opacity="0.2" mask="url(#SVGID_2_)">
				<path fill="#010202" d="M66.82,49.129c-0.152-4.249-3.72-7.615-8.071-7.615c-4.458,0-8.077,3.535-8.077,7.891
					c0,0.092,0.001,0.184,0.006,0.274v0.001c0.007,0.202,0.011,0.404,0.011,0.606c0,4.604-1.872,9.02-5.204,12.274v0.001
					c-1.515,1.479-2.365,3.486-2.365,5.579c0,4.355,3.617,7.89,8.076,7.89c2.142,0,4.195-0.83,5.71-2.31V73.72
					c6.361-6.216,9.935-14.645,9.935-23.434C66.842,49.9,66.834,49.515,66.82,49.129L66.82,49.129z" />
			</g>
		</g>
		<g>
			<g>
				<path fill="#767676" d="M49.697,21.482c-5.112-2.841-10.893-4.337-16.775-4.337c-18.723,0-33.919,14.847-33.919,33.141
					c0,18.293,15.196,33.14,33.919,33.14c5.882,0,11.663-1.495,16.775-4.337l0,0.001c-5.615-0.734-9.808-5.415-9.808-10.949l0,0
					l0-1.886c-2.204,0.917-4.572,1.391-6.967,1.391c-9.807,0-17.767-7.777-17.767-17.359c0-9.583,7.96-17.359,17.767-17.359
					c2.461,0,4.894,0.5,7.148,1.465l0,0c-0.119-0.647-0.18-1.303-0.18-1.961C39.889,26.897,44.082,22.216,49.697,21.482
					L49.697,21.482z" />
			</g>
			<defs>
				<filter id="Adobe_OpacityMaskFilter_2_" filterUnits="userSpaceOnUse" x="-0.998" y="17.146" width="50.695" height="66.28">

						<feColorMatrix  type="matrix" values="-1 0 0 0 1  0 -1 0 0 1  0 0 -1 0 1  0 0 0 1 0" color-interpolation-filters="sRGB" result="source" />
				</filter>
			</defs>
			<mask maskUnits="userSpaceOnUse" x="-0.998" y="17.146" width="50.695" height="66.28" id="SVGID_3_">
				<g filter="url(#Adobe_OpacityMaskFilter_2_)">

						<image overflow="visible" width="228" height="293" xlink:href="D5F27C05.jpg"  transform="matrix(0.24 0 0 0.24 -2.998 15.1455)">
					</image>
				</g>
			</mask>
			<g opacity="0.2" mask="url(#SVGID_3_)">
				<path fill="#010202" d="M49.697,21.482c-5.112-2.841-10.893-4.337-16.775-4.337c-18.723,0-33.919,14.847-33.919,33.141
					c0,18.293,15.196,33.14,33.919,33.14c5.882,0,11.663-1.495,16.775-4.337l0,0.001c-5.615-0.734-9.808-5.415-9.808-10.949l0,0
					l0-1.886c-2.204,0.917-4.572,1.391-6.967,1.391c-9.807,0-17.767-7.777-17.767-17.359c0-9.583,7.96-17.359,17.767-17.359
					c2.461,0,4.894,0.5,7.148,1.465l0,0c-0.119-0.647-0.18-1.303-0.18-1.961C39.889,26.897,44.082,22.216,49.697,21.482
					L49.697,21.482z" />
			</g>
		</g>
	</g>
	<g>
		<path fill="#414142" d="M99.46,76.056c1.399,0.06,2.999-0.179,4.795-0.714c1.795-0.536,3.668-1.756,5.618-3.66l0.091,0.089
			c0.913,1.131,1.659,2.263,2.237,3.392c0.579,1.132,1.081,2.292,1.508,3.482c-1.95,1.548-4.126,2.737-6.532,3.57
			c-2.406,0.834-4.978,1.25-7.718,1.25c-3.229,0-6.244-0.596-9.042-1.786c-2.803-1.189-5.253-2.812-7.355-4.864
			c-2.101-2.054-3.76-4.448-4.979-7.186c-1.218-2.737-1.826-5.684-1.826-8.839c0-3.153,0.608-6.099,1.826-8.836
			c1.218-2.737,2.878-5.133,4.979-7.187c2.102-2.052,4.552-3.673,7.355-4.864c2.798-1.19,5.814-1.785,9.042-1.785
			c2.741,0,5.312,0.416,7.718,1.249c2.406,0.833,4.582,2.023,6.532,3.57c-0.427,1.191-0.929,2.351-1.508,3.482
			c-0.579,1.13-1.324,2.262-2.237,3.39l-0.091,0.09c-1.95-1.903-3.823-3.125-5.618-3.659c-1.797-0.536-3.396-0.772-4.795-0.713
			c-1.706,0.059-3.288,0.49-4.751,1.293c-1.461,0.804-2.74,1.89-3.835,3.259c-1.097,1.369-1.965,2.961-2.604,4.776
			c-0.64,1.815-0.959,3.793-0.959,5.934c0,2.085,0.32,4.05,0.959,5.893c0.639,1.846,1.507,3.451,2.604,4.82
			c1.095,1.37,2.375,2.455,3.835,3.258C96.172,75.564,97.754,75.997,99.46,76.056z" />
		<path fill="#414142" d="M141.021,38.028c3.165,0,6.165,0.596,8.998,1.786c2.831,1.191,5.298,2.812,7.398,4.865
			c2.102,2.054,3.761,4.464,4.979,7.23c1.218,2.767,1.826,5.699,1.826,8.793c0,3.156-0.608,6.1-1.826,8.837
			c-1.219,2.738-2.878,5.132-4.979,7.187c-2.101,2.052-4.567,3.674-7.398,4.864c-2.833,1.189-5.833,1.785-8.998,1.785
			c-3.229,0-6.243-0.596-9.044-1.785c-2.801-1.19-5.251-2.813-7.352-4.864c-2.102-2.055-3.761-4.448-4.979-7.187
			c-1.218-2.737-1.827-5.681-1.827-8.837c0-3.094,0.609-6.026,1.827-8.793c1.218-2.767,2.878-5.177,4.979-7.23
			c2.1-2.053,4.55-3.674,7.352-4.865C134.778,38.625,137.792,38.028,141.021,38.028z M141.021,75.966
			c1.644,0,3.212-0.401,4.704-1.205c1.492-0.803,2.786-1.888,3.884-3.258c1.095-1.369,1.963-2.99,2.602-4.865
			c0.64-1.874,0.961-3.853,0.961-5.936s-0.321-4.046-0.961-5.892c-0.639-1.845-1.507-3.466-2.602-4.865
			c-1.098-1.397-2.392-2.5-3.884-3.302s-3.061-1.206-4.704-1.206c-1.706,0-3.288,0.403-4.75,1.206
			c-1.462,0.803-2.741,1.905-3.838,3.302c-1.096,1.399-1.963,3.021-2.603,4.865c-0.639,1.846-0.959,3.809-0.959,5.892
			s0.32,4.062,0.959,5.936c0.64,1.875,1.507,3.496,2.603,4.865c1.097,1.37,2.376,2.455,3.838,3.258
			C137.733,75.564,139.316,75.966,141.021,75.966z" />
		<path fill="#414142" d="M215.744,60.79c0,3.155-0.609,6.102-1.827,8.839c-1.219,2.737-2.878,5.132-4.979,7.186
			c-2.1,2.053-4.566,3.675-7.398,4.864c-2.832,1.19-5.862,1.786-9.088,1.786c-3.229,0-6.243-0.596-9.044-1.786
			c-2.802-1.189-5.253-2.812-7.354-4.864c-2.101-2.054-3.762-4.448-4.979-7.186c-1.219-2.737-1.827-5.684-1.827-8.839
			c0-3.153,0.608-6.099,1.827-8.836c1.217-2.737,2.878-5.133,4.979-7.187c2.101-2.052,4.552-3.673,7.354-4.864
			c2.801-1.19,5.814-1.785,9.044-1.785c3.47,0,6.696,0.683,9.682,2.053v11.425c-1.097-1.844-2.483-3.316-4.156-4.418
			c-1.675-1.099-3.518-1.65-5.525-1.65c-1.646,0-3.198,0.401-4.66,1.205c-1.463,0.803-2.74,1.89-3.836,3.259
			c-1.096,1.368-1.965,2.975-2.604,4.819c-0.64,1.846-0.96,3.839-0.96,5.979c0,2.085,0.32,4.063,0.96,5.937
			c0.639,1.876,1.508,3.497,2.604,4.866s2.373,2.455,3.836,3.257c1.462,0.805,3.015,1.206,4.66,1.206
			c1.642,0,3.196-0.401,4.657-1.206c1.461-0.802,2.741-1.888,3.837-3.257c1.097-1.369,1.979-2.96,2.648-4.776
			c0.671-1.814,1.006-3.763,1.006-5.847V19.908c1.582-0.833,3.272-1.487,5.069-1.964c1.794-0.476,3.82-0.714,6.075-0.714V60.79z" />
		<path fill="#414142" d="M222.776,42.67c1.583-0.833,3.271-1.5,5.07-2.008c1.794-0.505,3.819-0.758,6.073-0.758V79.27
			c-2.619,1.369-5.603,2.231-8.951,2.588h-2.192V42.67z" />
		<path fill="#414142" d="M263.061,38.028c3.227,0,6.196,0.596,8.905,1.786c2.709,1.191,5.038,2.812,6.987,4.865
			c1.948,2.054,3.474,4.464,4.567,7.23c1.097,2.767,1.645,5.699,1.645,8.793V79.27c-1.583,0.833-3.273,1.503-5.069,2.009
			c-1.797,0.505-3.821,0.758-6.076,0.758V60.702c0-2.083-0.258-4.046-0.775-5.892c-0.518-1.845-1.247-3.466-2.192-4.865
			c-0.944-1.397-2.085-2.5-3.425-3.302s-2.861-1.206-4.566-1.206c-1.645,0-3.152,0.403-4.522,1.206s-2.527,1.905-3.473,3.302
			c-0.942,1.399-1.676,3.021-2.191,4.865c-0.518,1.846-0.776,3.809-0.776,5.892V79.27c-1.584,0.833-3.273,1.503-5.068,2.009
			c-1.799,0.505-3.792,0.758-5.985,0.758V60.702c0-3.094,0.55-6.026,1.646-8.793c1.095-2.767,2.616-5.177,4.567-7.23
			c1.947-2.053,4.262-3.674,6.941-4.865C256.878,38.625,259.832,38.028,263.061,38.028z" />
		<g>
			<g>
				<ellipse fill="#3289C5" cx="228.406" cy="27.753" rx="7.161" ry="6.998" />
			</g>
			<defs>
				<filter id="Adobe_OpacityMaskFilter_3_" filterUnits="userSpaceOnUse" x="221.245" y="20.756" width="14.321" height="13.994">

						<feColorMatrix  type="matrix" values="-1 0 0 0 1  0 -1 0 0 1  0 0 -1 0 1  0 0 0 1 0" color-interpolation-filters="sRGB" result="source" />
				</filter>
			</defs>
			<mask maskUnits="userSpaceOnUse" x="221.245" y="20.756" width="14.321" height="13.994" id="SVGID_4_">
				<g filter="url(#Adobe_OpacityMaskFilter_3_)">

						<image overflow="visible" width="77" height="75" xlink:href="D5F27C06.jpg"  transform="matrix(0.24 0 0 0.24 219.2451 18.7563)">
					</image>
				</g>
			</mask>
			<g opacity="0.2" mask="url(#SVGID_4_)">
				<ellipse fill="#010202" cx="228.406" cy="27.753" rx="7.161" ry="6.998" />
			</g>
		</g>
	</g>
</g>
</svg>