<?xml version="1.0" encoding="utf-8"?>
<!-- Generator: Adobe Illustrator 16.0.0, SVG Export Plug-In . SVG Version: 6.00 Build 0)  -->
<!DOCTYPE svg PUBLIC "-//W3C//DTD SVG 1.1//EN" "http://www.w3.org/Graphics/SVG/1.1/DTD/svg11.dtd">
<svg version="1.1" id="Camada_1" xmlns="http://www.w3.org/2000/svg" xmlns:xlink="http://www.w3.org/1999/xlink" x="0px" y="0px"
	 width="345.83px" height="73.7px" viewBox="0 0 345.83 73.7" enable-background="new 0 0 345.83 73.7" xml:space="preserve">
<g>
	<path d="M4.305,38.981c1.897,0,3.159-0.984,3.159-2.64v-0.023c0-1.518-1.117-2.12-2.914-2.525
		c-1.083-0.255-1.349-0.416-1.349-0.787v-0.022c0-0.29,0.256-0.522,0.78-0.522c0.692,0,1.473,0.278,2.188,0.799l1.082-1.586
		c-0.848-0.707-1.885-1.076-3.214-1.076c-1.875,0-3.025,1.087-3.025,2.593v0.022c0,1.667,1.285,2.155,2.947,2.549
		c1.061,0.254,1.317,0.439,1.317,0.776v0.022c0,0.348-0.312,0.555-0.893,0.555c-0.904,0-1.763-0.334-2.533-0.973l-1.206,1.494
		C1.605,38.529,2.922,38.981,4.305,38.981L4.305,38.981z M8.026,38.844h6.339v-1.911H10.17v-1.286h3.748v-1.772H10.17v-1.227h4.14
		v-1.911H8.026V38.844L8.026,38.844z M18.689,39.004c1.729,0,2.724-0.774,3.46-1.829l-1.63-1.205
		c-0.468,0.592-0.948,0.984-1.763,0.984c-1.094,0-1.863-0.949-1.863-2.163v-0.026c0-1.181,0.769-2.14,1.863-2.14
		c0.749,0,1.26,0.369,1.708,0.947l1.63-1.308c-0.693-0.995-1.72-1.69-3.316-1.69c-2.365,0-4.117,1.853-4.117,4.217v0.021
		C14.66,37.232,16.456,39.004,18.689,39.004L18.689,39.004z M22.588,38.844h2.165v-2.456h0.949l1.573,2.456h2.5l-1.864-2.827
		c0.972-0.429,1.607-1.252,1.607-2.489v-0.023c0-0.8-0.234-1.424-0.692-1.889c-0.525-0.554-1.35-0.879-2.544-0.879h-3.694V38.844
		L22.588,38.844z M24.753,34.627v-1.945h1.418c0.726,0,1.172,0.324,1.172,0.96v0.025c0,0.589-0.424,0.96-1.161,0.96H24.753
		L24.753,34.627z M30.126,38.844h6.338v-1.911h-4.195v-1.286h3.75v-1.772h-3.75v-1.227h4.14v-1.911h-6.283V38.844L30.126,38.844z
		 M38.991,38.844h2.166v-6.14H43.5v-1.968h-6.853v1.968h2.343V38.844L38.991,38.844z M42.333,38.844h2.277l0.558-1.449h3.013
		l0.57,1.449h2.321l-3.326-8.166h-2.087L42.333,38.844L42.333,38.844z M45.804,35.646l0.882-2.305l0.871,2.305H45.804L45.804,35.646
		z M51.344,38.844h2.165v-2.456h0.949l1.573,2.456h2.5l-1.864-2.827c0.971-0.429,1.607-1.252,1.607-2.489v-0.023
		c0-0.8-0.235-1.424-0.691-1.889c-0.525-0.554-1.352-0.879-2.545-0.879h-3.693V38.844L51.344,38.844z M53.509,34.627v-1.945h1.417
		c0.726,0,1.171,0.324,1.171,0.96v0.025c0,0.589-0.423,0.96-1.161,0.96H53.509L53.509,34.627z M58.926,38.844h2.176v-8.107h-2.176
		V38.844L58.926,38.844z M61.42,38.844h2.275l0.559-1.449h3.013l0.569,1.449h2.322l-3.327-8.166h-2.086L61.42,38.844L61.42,38.844z
		 M64.891,35.646l0.881-2.305l0.871,2.305H64.891L64.891,35.646z M73.521,38.844h2.969c2.812,0,4.453-1.738,4.453-4.079v-0.021
		c0-2.339-1.618-4.007-4.408-4.007h-3.015V38.844L73.521,38.844z M75.687,36.852v-4.123h0.881c1.296,0,2.155,0.752,2.155,2.05v0.022
		c0,1.309-0.859,2.051-2.155,2.051H75.687L75.687,36.852z M81.572,38.844h6.34v-1.911h-4.197v-1.286h3.75v-1.772h-3.75v-1.227h4.14
		v-1.911h-6.283V38.844L81.572,38.844z M91.621,38.844h6.34v-1.911h-4.197v-1.286h3.75v-1.772h-3.75v-1.227h4.141v-1.911h-6.283
		V38.844L91.621,38.844z M101.648,38.981c1.897,0,3.158-0.984,3.158-2.64v-0.023c0-1.518-1.117-2.12-2.913-2.525
		c-1.083-0.255-1.35-0.416-1.35-0.787v-0.022c0-0.29,0.256-0.522,0.781-0.522c0.692,0,1.473,0.278,2.188,0.799l1.083-1.586
		c-0.848-0.707-1.886-1.076-3.214-1.076c-1.875,0-3.025,1.087-3.025,2.593v0.022c0,1.667,1.284,2.155,2.947,2.549
		c1.061,0.254,1.317,0.439,1.317,0.776v0.022c0,0.348-0.312,0.555-0.893,0.555c-0.903,0-1.763-0.334-2.533-0.973l-1.206,1.494
		C98.947,38.529,100.264,38.981,101.648,38.981L101.648,38.981z M107.053,38.844h2.165v-6.14h2.343v-1.968h-6.851v1.968h2.343
		V38.844L107.053,38.844z M110.396,38.844h2.276l0.558-1.449h3.014l0.569,1.449h2.32l-3.325-8.166h-2.087L110.396,38.844
		L110.396,38.844z M113.865,35.646l0.883-2.305l0.87,2.305H113.865L113.865,35.646z M119.406,38.844h2.968
		c2.813,0,4.454-1.738,4.454-4.079v-0.021c0-2.339-1.618-4.007-4.408-4.007h-3.014V38.844L119.406,38.844z M121.57,36.852v-4.123
		h0.882c1.295,0,2.154,0.752,2.154,2.05v0.022c0,1.309-0.859,2.051-2.154,2.051H121.57L121.57,36.852z M131.385,39.004
		c2.412,0,4.219-1.888,4.219-4.213v-0.026c0-2.326-1.786-4.19-4.197-4.19c-2.41,0-4.218,1.887-4.218,4.217v0.021
		C127.189,37.141,128.974,39.004,131.385,39.004L131.385,39.004z M131.407,36.978c-1.183,0-1.997-1.02-1.997-2.187v-0.026
		c0-1.169,0.792-2.164,1.975-2.164c1.195,0,2.009,1.02,2.009,2.19v0.021C133.394,35.982,132.602,36.978,131.407,36.978
		L131.407,36.978z M27.889,51.07h2.968c2.812,0,4.454-1.735,4.454-4.076v-0.022c0-2.338-1.619-4.006-4.409-4.006h-3.013V51.07
		L27.889,51.07z M30.053,49.079v-4.122h0.881c1.295,0,2.154,0.752,2.154,2.049v0.024c0,1.308-0.859,2.049-2.154,2.049H30.053
		L30.053,49.079z M34.756,51.07h2.277l0.558-1.446h3.014l0.569,1.446h2.321l-3.326-8.164h-2.087L34.756,51.07L34.756,51.07z
		 M38.228,47.875l0.882-2.304l0.87,2.304H38.228L38.228,47.875z M46.858,51.07h6.339v-1.909h-4.195v-1.286h3.749v-1.771h-3.749
		v-1.228h4.14v-1.91h-6.283V51.07L46.858,51.07z M53.815,51.07h2.969c2.813,0,4.454-1.735,4.454-4.076v-0.022
		c0-2.338-1.619-4.006-4.409-4.006h-3.014V51.07L53.815,51.07z M55.98,49.079v-4.122h0.882c1.295,0,2.155,0.752,2.155,2.049v0.024
		c0,1.308-0.859,2.049-2.155,2.049H55.98L55.98,49.079z M65.382,51.223c2.222,0,3.662-1.148,3.662-3.765v-4.492h-2.198v4.562
		c0,1.135-0.57,1.668-1.44,1.668c-0.871,0-1.44-0.556-1.44-1.727v-4.503h-2.198v4.55C61.767,50.052,63.162,51.223,65.382,51.223
		L65.382,51.223z M73.601,51.233c1.729,0,2.724-0.775,3.46-1.83l-1.63-1.204c-0.468,0.591-0.949,0.984-1.763,0.984
		c-1.094,0-1.863-0.95-1.863-2.166v-0.023c0-1.181,0.77-2.142,1.863-2.142c0.748,0,1.26,0.369,1.708,0.949l1.63-1.307
		c-0.693-0.997-1.72-1.693-3.316-1.693c-2.366,0-4.118,1.854-4.118,4.216v0.023C69.572,49.461,71.369,51.233,73.601,51.233
		L73.601,51.233z M76.809,51.07h2.276l0.558-1.446h3.013l0.57,1.446h2.321l-3.326-8.164h-2.087L76.809,51.07L76.809,51.07z
		 M80.279,47.875l0.882-2.304l0.87,2.304H80.279L80.279,47.875z M88.866,53.075l0.625-1.865c1.483-0.116,2.366-0.833,3.047-1.807
		l-1.629-1.204c-0.469,0.591-0.949,0.984-1.763,0.984c-1.094,0-1.864-0.95-1.864-2.166v-0.023c0-1.181,0.77-2.142,1.864-2.142
		c0.748,0,1.26,0.369,1.708,0.949l1.63-1.307c-0.692-0.997-1.72-1.693-3.315-1.693c-2.367,0-4.118,1.854-4.118,4.216v0.023
		c0,2.038,1.271,3.626,3.013,4.064l-0.87,1.228L88.866,53.075L88.866,53.075z M92.296,51.07h2.277l0.558-1.446h3.013l0.569,1.446
		h2.322l-3.327-8.164h-2.087L92.296,51.07L92.296,51.07z M95.767,47.875l0.882-2.304l0.871,2.304H95.767L95.767,47.875z
		 M95.298,42.387c0.146-0.372,0.279-0.545,0.592-0.545c0.356,0,1.171,0.451,1.841,0.451c0.759,0,1.161-0.567,1.395-1.713
		l-1.016-0.29c-0.146,0.359-0.268,0.532-0.58,0.532c-0.368,0-1.171-0.45-1.841-0.45c-0.771,0-1.161,0.58-1.407,1.725L95.298,42.387
		L95.298,42.387z M104.733,51.233c2.411,0,4.219-1.888,4.219-4.216v-0.023c0-2.326-1.786-4.192-4.197-4.192
		c-2.41,0-4.218,1.888-4.218,4.216v0.023C100.537,49.369,102.323,51.233,104.733,51.233L104.733,51.233z M104.755,49.207
		c-1.183,0-1.997-1.019-1.997-2.189v-0.023c0-1.169,0.793-2.165,1.975-2.165c1.195,0,2.009,1.02,2.009,2.188v0.023
		C106.742,48.212,105.951,49.207,104.755,49.207L104.755,49.207z"/>
	<path fill="#878787" d="M256.596,20.674c-0.568,0-1.086-0.098-1.555-0.29c-0.467-0.195-0.869-0.465-1.205-0.809
		c-0.336-0.346-0.596-0.755-0.785-1.229c-0.186-0.475-0.279-0.992-0.279-1.553v-0.021c0-0.539,0.096-1.044,0.285-1.514
		c0.191-0.47,0.457-0.884,0.793-1.24c0.342-0.355,0.744-0.636,1.207-0.841c0.463-0.205,0.975-0.306,1.525-0.306
		c0.328,0,0.623,0.022,0.889,0.069c0.268,0.047,0.516,0.113,0.742,0.199c0.23,0.086,0.447,0.194,0.646,0.324
		c0.201,0.128,0.395,0.275,0.58,0.441l-1.006,1.26c-0.139-0.122-0.279-0.229-0.418-0.322c-0.137-0.093-0.279-0.173-0.43-0.238
		c-0.148-0.063-0.309-0.115-0.482-0.15c-0.174-0.037-0.363-0.053-0.57-0.053c-0.291,0-0.563,0.062-0.816,0.189
		c-0.252,0.125-0.473,0.295-0.666,0.508c-0.189,0.21-0.338,0.459-0.445,0.744c-0.105,0.284-0.162,0.59-0.162,0.912v0.023
		c0,0.344,0.057,0.664,0.162,0.956c0.107,0.292,0.258,0.546,0.455,0.76c0.199,0.215,0.43,0.386,0.697,0.503
		c0.268,0.119,0.563,0.178,0.889,0.178c0.596,0,1.098-0.152,1.506-0.457v-1.084h-1.611v-1.434h3.158v3.277
		c-0.373,0.331-0.818,0.612-1.336,0.846C257.85,20.557,257.26,20.674,256.596,20.674L256.596,20.674z M263.988,19.144
		c0.318,0,0.613-0.062,0.885-0.184c0.27-0.122,0.498-0.292,0.689-0.507c0.189-0.215,0.338-0.464,0.447-0.749
		c0.105-0.284,0.16-0.586,0.16-0.911v-0.021c0-0.323-0.055-0.629-0.16-0.916c-0.109-0.288-0.262-0.54-0.457-0.755
		c-0.199-0.215-0.434-0.386-0.701-0.511c-0.27-0.127-0.566-0.189-0.885-0.189c-0.324,0-0.621,0.06-0.887,0.183
		c-0.268,0.122-0.496,0.291-0.688,0.506c-0.189,0.216-0.34,0.466-0.445,0.75c-0.107,0.283-0.16,0.586-0.16,0.911v0.021
		c0,0.324,0.053,0.628,0.16,0.917c0.105,0.287,0.258,0.538,0.457,0.754c0.195,0.216,0.43,0.386,0.697,0.513
		C263.367,19.081,263.662,19.144,263.988,19.144L263.988,19.144z M263.967,20.674c-0.561,0-1.076-0.102-1.545-0.307
		c-0.473-0.205-0.881-0.481-1.223-0.831c-0.344-0.349-0.607-0.757-0.799-1.228c-0.191-0.471-0.287-0.976-0.287-1.516v-0.021
		c0-0.539,0.1-1.044,0.293-1.514s0.461-0.884,0.805-1.24c0.342-0.355,0.75-0.636,1.227-0.841c0.473-0.205,0.99-0.306,1.551-0.306
		c0.563,0,1.078,0.101,1.549,0.306c0.471,0.206,0.877,0.483,1.221,0.832c0.342,0.348,0.609,0.757,0.799,1.228
		c0.191,0.472,0.285,0.976,0.285,1.515v0.021c0,0.538-0.096,1.043-0.291,1.514c-0.193,0.471-0.463,0.885-0.805,1.239
		c-0.342,0.356-0.75,0.637-1.223,0.842C265.047,20.572,264.529,20.674,263.967,20.674L263.967,20.674z M267.84,13h1.768l1.898,5.314
		L273.41,13h1.723l-2.938,7.6h-1.416L267.84,13L267.84,13z M275.453,13h5.475v1.478h-3.895v1.53h3.428v1.476h-3.428v1.583h3.947
		v1.478h-5.527V13L275.453,13z M284.832,16.665c0.396,0,0.699-0.098,0.91-0.291c0.211-0.194,0.314-0.454,0.314-0.776v-0.021
		c0-0.36-0.109-0.629-0.33-0.808c-0.223-0.181-0.531-0.27-0.926-0.27h-1.588v2.167H284.832L284.832,16.665z M281.613,13h3.322
		c0.922,0,1.629,0.257,2.121,0.766c0.414,0.431,0.621,1.006,0.621,1.723v0.023c0,0.61-0.145,1.108-0.43,1.493
		c-0.287,0.384-0.664,0.667-1.127,0.846l1.775,2.695h-1.869l-1.559-2.415h-0.02h-1.236v2.415h-1.6V13L281.613,13z M288.322,13h1.475
		l3.406,4.646V13h1.58v7.546h-1.361l-3.521-4.797v4.797h-1.578V13L288.322,13z M299.277,19.144c0.318,0,0.613-0.062,0.885-0.184
		c0.27-0.122,0.5-0.292,0.691-0.507c0.189-0.215,0.34-0.464,0.445-0.749c0.105-0.284,0.162-0.586,0.162-0.911v-0.021
		c0-0.323-0.057-0.629-0.162-0.916c-0.105-0.288-0.26-0.54-0.455-0.755c-0.197-0.215-0.434-0.386-0.703-0.511
		c-0.271-0.127-0.564-0.189-0.883-0.189c-0.324,0-0.621,0.06-0.887,0.183c-0.268,0.122-0.496,0.291-0.686,0.506
		c-0.191,0.216-0.342,0.466-0.447,0.75c-0.107,0.283-0.162,0.586-0.162,0.911v0.021c0,0.324,0.055,0.628,0.162,0.917
		c0.105,0.287,0.26,0.538,0.457,0.754c0.197,0.216,0.428,0.386,0.693,0.513C298.656,19.081,298.953,19.144,299.277,19.144
		L299.277,19.144z M299.258,20.674c-0.561,0-1.078-0.102-1.547-0.307c-0.471-0.205-0.877-0.481-1.221-0.831
		c-0.342-0.349-0.609-0.757-0.801-1.228c-0.188-0.471-0.285-0.976-0.285-1.516v-0.021c0-0.539,0.098-1.044,0.291-1.514
		c0.195-0.47,0.463-0.884,0.805-1.24c0.344-0.355,0.752-0.636,1.225-0.841c0.475-0.205,0.994-0.306,1.553-0.306
		c0.563,0,1.078,0.101,1.549,0.306c0.471,0.206,0.879,0.483,1.221,0.832c0.344,0.348,0.609,0.757,0.799,1.228
		c0.191,0.472,0.287,0.976,0.287,1.515v0.021c0,0.538-0.098,1.043-0.293,1.514c-0.193,0.471-0.461,0.885-0.803,1.239
		c-0.342,0.356-0.752,0.637-1.227,0.842C300.338,20.572,299.818,20.674,299.258,20.674L299.258,20.674z M309.707,19.046
		c0.324,0,0.623-0.053,0.893-0.161c0.271-0.107,0.502-0.263,0.691-0.463c0.189-0.202,0.34-0.438,0.447-0.711
		c0.105-0.273,0.162-0.579,0.162-0.917v-0.021c0-0.33-0.057-0.637-0.162-0.916c-0.107-0.28-0.258-0.521-0.447-0.722
		c-0.189-0.202-0.42-0.357-0.691-0.469c-0.27-0.112-0.568-0.167-0.893-0.167h-1.236v4.548H309.707L309.707,19.046z M306.869,13
		h2.838c0.568,0,1.088,0.095,1.563,0.287c0.475,0.19,0.885,0.453,1.227,0.791c0.342,0.338,0.607,0.734,0.795,1.191
		c0.188,0.455,0.279,0.95,0.279,1.482v0.021c0,0.532-0.092,1.028-0.279,1.488c-0.188,0.458-0.453,0.858-0.795,1.196
		c-0.342,0.337-0.752,0.603-1.227,0.798c-0.475,0.193-0.994,0.291-1.563,0.291h-2.838V13L306.869,13z M314.193,13h5.473v1.478
		h-3.896v1.53h3.43v1.476h-3.43v1.583h3.949v1.478h-5.525V13L314.193,13z"/>
	<path d="M236.979,46.143c-1.848,0-3.602-0.296-5.264-0.893c-1.662-0.598-3.131-1.49-4.408-2.679l3.184-3.958
		c2.064,1.713,4.297,2.571,6.695,2.571c0.768,0,1.354-0.127,1.756-0.384c0.404-0.254,0.604-0.616,0.604-1.086v-0.057
		c0-0.225-0.047-0.424-0.145-0.597c-0.102-0.173-0.281-0.341-0.547-0.505c-0.268-0.163-0.619-0.321-1.061-0.474
		c-0.443-0.153-1.021-0.313-1.729-0.475c-1.102-0.267-2.123-0.556-3.066-0.868c-0.943-0.315-1.766-0.724-2.463-1.224
		c-0.697-0.499-1.25-1.122-1.65-1.862c-0.404-0.745-0.607-1.667-0.607-2.764v-0.062c0-1,0.186-1.918,0.545-2.75
		c0.365-0.835,0.898-1.561,1.594-2.173c0.699-0.606,1.541-1.081,2.521-1.417c0.984-0.338,2.096-0.505,3.334-0.505
		c1.77,0,3.35,0.24,4.734,0.724c1.389,0.479,2.641,1.194,3.762,2.138l-2.861,4.208c-0.943-0.693-1.914-1.22-2.906-1.577
		c-0.992-0.355-1.951-0.536-2.875-0.536c-0.688,0-1.205,0.133-1.549,0.398c-0.344,0.266-0.516,0.593-0.516,0.98v0.06
		c0,0.24,0.053,0.454,0.162,0.638c0.107,0.184,0.297,0.352,0.561,0.505c0.266,0.154,0.627,0.306,1.09,0.46
		c0.463,0.152,1.049,0.311,1.756,0.474c1.18,0.265,2.246,0.578,3.201,0.928c0.953,0.357,1.766,0.791,2.436,1.302
		c0.666,0.51,1.178,1.128,1.531,1.846c0.354,0.726,0.531,1.586,0.531,2.581v0.063c0,1.103-0.201,2.08-0.605,2.932
		c-0.402,0.857-0.969,1.587-1.695,2.19c-0.727,0.596-1.604,1.055-2.625,1.372C239.379,45.983,238.238,46.143,236.979,46.143
		L236.979,46.143z M246.033,24.349h16.578V29.4h-10.945v3.243h9.912v4.684h-9.912v3.397h11.092v5.051h-16.725V24.349L246.033,24.349
		z M273.139,34.635c0.98,0,1.738-0.229,2.27-0.689c0.531-0.459,0.797-1.077,0.797-1.852v-0.062c0-0.856-0.277-1.494-0.826-1.912
		c-0.551-0.419-1.309-0.627-2.273-0.627h-3.744v5.142H273.139L273.139,34.635z M263.639,24.349h9.764
		c1.594,0,2.939,0.205,4.041,0.614c1.102,0.407,1.998,0.979,2.684,1.713c1.221,1.225,1.83,2.888,1.83,4.99v0.06
		c0,1.653-0.383,3.021-1.148,4.102c-0.77,1.084-1.803,1.909-3.1,2.48l4.928,7.468h-6.609l-4.156-6.488h-0.063h-2.447v6.488h-5.723
		V24.349L263.639,24.349z M293.309,46.204c-1.611,0-3.102-0.27-4.469-0.811c-1.363-0.542-2.551-1.302-3.555-2.281
		c-1.002-0.979-1.789-2.147-2.357-3.505c-0.57-1.356-0.855-2.852-0.855-4.483v-0.062c0-1.55,0.279-3.005,0.834-4.362
		c0.561-1.357,1.328-2.541,2.307-3.549c0.979-1.01,2.148-1.802,3.514-2.373c1.363-0.57,2.844-0.856,4.436-0.856
		c1.83,0,3.404,0.275,4.734,0.826c1.328,0.552,2.541,1.316,3.645,2.296l-3.363,4.194c-0.748-0.653-1.512-1.154-2.285-1.5
		c-0.777-0.347-1.68-0.52-2.701-0.52c-0.748,0-1.439,0.152-2.08,0.458c-0.639,0.305-1.193,0.725-1.666,1.254
		c-0.473,0.531-0.846,1.154-1.119,1.869c-0.275,0.715-0.414,1.479-0.414,2.295v0.062c0,0.857,0.139,1.652,0.414,2.387
		c0.273,0.735,0.666,1.362,1.17,1.884c0.5,0.521,1.096,0.927,1.773,1.225c0.684,0.295,1.438,0.444,2.266,0.444
		c1.344,0,2.445-0.296,3.314-0.889v-2.603h-4.072v-4.346h9.5v9.643c-1.102,0.938-2.4,1.724-3.895,2.356
		C296.889,45.888,295.197,46.204,293.309,46.204L293.309,46.204z M303.512,24.349h5.754v21.426h-5.754V24.349L303.512,24.349z
		 M318.818,35.001c1.021,0,1.822-0.249,2.402-0.754c0.58-0.501,0.873-1.184,0.873-2.046v-0.063c0-0.922-0.293-1.626-0.873-2.106
		c-0.58-0.485-1.391-0.724-2.432-0.724h-2.686v5.692H318.818L318.818,35.001z M310.381,24.349h8.85c1.299,0,2.479,0.169,3.539,0.505
		c1.061,0.338,1.967,0.826,2.717,1.47c0.746,0.642,1.318,1.433,1.725,2.372c0.4,0.938,0.604,2,0.604,3.183v0.062
		c0,1.264-0.221,2.377-0.664,3.336c-0.441,0.959-1.057,1.765-1.844,2.418c-0.787,0.651-1.725,1.142-2.818,1.469
		c-1.09,0.326-2.275,0.49-3.553,0.49h-2.832v6.121h-5.723V24.349L310.381,24.349z M328.459,24.349h16.58V29.4h-10.945v3.243h9.91
		v4.684h-9.91v3.397h11.092v5.051h-16.727V24.349L328.459,24.349z"/>
	<path fill-rule="evenodd" clip-rule="evenodd" fill="#E30613" d="M216.082,42.521c2.504,2.09,2.904,5.891,0.891,8.492
		s-5.676,3.016-8.186,0.926c-2.506-2.09-2.904-5.892-0.893-8.491C209.91,40.846,213.574,40.431,216.082,42.521L216.082,42.521z"/>
	<path fill-rule="evenodd" clip-rule="evenodd" fill="#E30613" d="M165.716,39.966c-0.265,1.837-0.092,3.688,0.427,5.472
		c0.018,0.087,0.034,0.173,0.051,0.257c1.897,9.157,10.589,14.986,19.415,13.018c1.229-0.274,2.395-0.685,3.486-1.213
		c1.146-0.519,2.256-1.22,3.309-2.117c7.479-5.869,10.527-17.85,8.037-29.436c-0.346-1.98-0.852-3.957-1.521-5.899
		c7.832,18.179,4.721,38.318,4.721,38.318c6.443,1.679,12.115-0.587,16.912-5.196c-4.463,9.971-12.359,14.801-22.699,15.318
		C179.637,69.396,162.947,55.142,165.716,39.966L165.716,39.966z"/>
	<path fill-rule="evenodd" clip-rule="evenodd" fill="#009640" d="M164.327,9.915c0.532-3.291,3.533-5.512,6.703-4.959
		c3.173,0.551,5.313,3.665,4.78,6.956c-0.531,3.29-3.531,5.509-6.704,4.96C165.936,16.32,163.796,13.206,164.327,9.915
		L164.327,9.915z"/>
	<path fill-rule="evenodd" clip-rule="evenodd" fill="#009640" d="M186.805,56.75c1.676-0.658,3.145-1.719,4.393-3.063
		c0.063-0.058,0.129-0.113,0.189-0.17c6.773-6.195,7.422-16.913,1.451-23.939c-0.83-0.978-1.744-1.832-2.725-2.562
		c-0.994-0.782-2.125-1.446-3.396-1.961c-8.59-3.897-20.152-0.799-28.676,7.12c-1.495,1.279-2.909,2.705-4.214,4.261
		c11.452-15.979,29.904-23.008,29.904-23.008c-1.74-6.655-6.418-10.682-12.638-12.768c10.565-0.836,18.487,3.951,23.979,13.057
		C204.74,29.76,200.918,51.838,186.805,56.75L186.805,56.75z"/>
	<path fill-rule="evenodd" clip-rule="evenodd" fill="#FFCC00" d="M162.716,72.75c-3.011,1.167-6.366-0.419-7.49-3.545
		c-1.125-3.125,0.403-6.605,3.415-7.773c3.013-1.168,6.366,0.42,7.492,3.546C167.257,68.102,165.728,71.582,162.716,72.75
		L162.716,72.75z"/>
	<path fill-rule="evenodd" clip-rule="evenodd" fill="#FFCC00" d="M190.566,29.132c-1.385-1.174-3.006-1.966-4.752-2.414
		c-0.078-0.031-0.156-0.059-0.236-0.087c-8.557-2.987-17.827,1.788-20.705,10.665c-0.4,1.236-0.657,2.485-0.777,3.729
		c-0.156,1.287-0.144,2.636,0.062,4.037c1.042,9.666,9.407,18.506,20.281,22.206c1.816,0.703,3.711,1.261,5.662,1.656
		c-19.061-2.301-34.155-15.368-34.155-15.368c-4.683,4.89-5.705,11.106-4.337,17.74c-5.978-9.074-5.945-18.588-1.089-28.073
		C159.072,26.512,179.41,18.909,190.566,29.132L190.566,29.132z"/>
	<path fill="#878787" d="M230.748,54.824l-0.695-1.757l-0.695,1.757H230.748L230.748,54.824z M229.539,51.633h1.061l2.238,5.463
		h-1.201l-0.479-1.217h-2.211l-0.477,1.217h-1.174L229.539,51.633L229.539,51.633z M237.068,57.188
		c-0.408,0-0.779-0.069-1.117-0.207c-0.336-0.142-0.621-0.333-0.863-0.582c-0.244-0.248-0.43-0.543-0.564-0.884
		s-0.201-0.713-0.201-1.115v-0.017c0-0.388,0.068-0.751,0.205-1.088c0.135-0.339,0.326-0.636,0.57-0.893
		c0.244-0.254,0.533-0.456,0.865-0.604c0.336-0.146,0.699-0.219,1.1-0.219c0.234,0,0.445,0.016,0.637,0.049
		c0.193,0.034,0.371,0.081,0.535,0.144c0.164,0.061,0.318,0.14,0.463,0.233c0.143,0.092,0.281,0.197,0.418,0.316l-0.725,0.907
		c-0.1-0.088-0.199-0.165-0.297-0.232c-0.102-0.067-0.205-0.124-0.313-0.172c-0.105-0.046-0.221-0.08-0.348-0.108
		c-0.123-0.024-0.258-0.036-0.41-0.036c-0.209,0-0.402,0.044-0.586,0.135c-0.182,0.091-0.34,0.213-0.477,0.364
		c-0.139,0.153-0.244,0.331-0.322,0.536c-0.074,0.205-0.113,0.424-0.113,0.658v0.014c0,0.248,0.039,0.478,0.113,0.687
		c0.078,0.211,0.188,0.394,0.33,0.549c0.141,0.154,0.307,0.276,0.5,0.362c0.191,0.084,0.404,0.127,0.639,0.127
		c0.428,0,0.787-0.11,1.082-0.328v-0.781h-1.158v-1.029h2.27v2.355c-0.268,0.238-0.588,0.439-0.957,0.606
		C237.971,57.104,237.547,57.188,237.068,57.188L237.068,57.188z M240.074,51.672h3.936v1.062h-2.801v1.098h2.463v1.063h-2.463
		v1.139h2.838v1.063h-3.973V51.672L240.074,51.672z M244.748,51.672h1.059l2.449,3.34v-3.34h1.135v5.424h-0.977l-2.533-3.448v3.448
		h-1.133V51.672L244.748,51.672z M251.531,52.771h-1.592v-1.1h4.33v1.1h-1.588v4.324h-1.15V52.771L251.531,52.771z M254.82,51.672
		h3.938v1.062h-2.803v1.098h2.463v1.063h-2.463v1.139h2.838v1.063h-3.973V51.672L254.82,51.672z M263.234,57.188
		c-0.385,0-0.738-0.071-1.068-0.217c-0.328-0.144-0.611-0.341-0.852-0.594c-0.238-0.249-0.426-0.545-0.559-0.886
		c-0.137-0.342-0.203-0.705-0.203-1.092v-0.017c0-0.388,0.066-0.751,0.203-1.088c0.133-0.339,0.32-0.636,0.559-0.893
		c0.24-0.254,0.525-0.456,0.859-0.604c0.334-0.146,0.701-0.219,1.105-0.219c0.242,0,0.467,0.02,0.668,0.061s0.385,0.099,0.547,0.171
		c0.166,0.071,0.318,0.16,0.457,0.265c0.141,0.102,0.271,0.216,0.391,0.339l-0.734,0.877c-0.203-0.191-0.412-0.341-0.623-0.449
		s-0.449-0.162-0.713-0.162c-0.217,0-0.422,0.043-0.607,0.131c-0.189,0.087-0.348,0.209-0.484,0.365
		c-0.133,0.153-0.238,0.333-0.314,0.537c-0.074,0.204-0.111,0.423-0.111,0.654v0.016c0,0.231,0.037,0.453,0.111,0.659
		c0.076,0.207,0.18,0.387,0.313,0.543c0.131,0.153,0.291,0.277,0.479,0.367c0.188,0.091,0.391,0.137,0.615,0.137
		c0.297,0,0.551-0.059,0.756-0.171c0.209-0.114,0.414-0.269,0.617-0.466l0.732,0.769c-0.135,0.149-0.273,0.283-0.418,0.401
		c-0.146,0.119-0.301,0.221-0.475,0.307s-0.359,0.149-0.563,0.194C263.717,57.166,263.488,57.188,263.234,57.188L263.234,57.188z
		 M268.145,57.18c-0.701,0-1.254-0.199-1.656-0.603c-0.406-0.405-0.607-1.006-0.607-1.808v-3.098h1.15v3.068
		c0,0.443,0.1,0.778,0.301,1.003c0.197,0.225,0.475,0.337,0.828,0.337c0.352,0,0.629-0.107,0.828-0.324
		c0.199-0.219,0.299-0.543,0.299-0.979v-3.105h1.15v3.06c0,0.414-0.055,0.773-0.162,1.077c-0.107,0.306-0.258,0.56-0.459,0.764
		c-0.199,0.204-0.439,0.356-0.721,0.456C268.809,57.13,268.494,57.18,268.145,57.18L268.145,57.18z M271.33,51.672h1.148v5.424
		h-1.148V51.672L271.33,51.672z M275.494,56.018c0.234,0,0.447-0.038,0.641-0.115c0.193-0.078,0.359-0.189,0.496-0.335
		c0.139-0.143,0.246-0.315,0.322-0.511c0.076-0.196,0.115-0.414,0.115-0.657v-0.017c0-0.236-0.039-0.458-0.115-0.659
		s-0.184-0.373-0.322-0.519c-0.137-0.146-0.303-0.256-0.496-0.336c-0.193-0.081-0.406-0.121-0.641-0.121h-0.891v3.27H275.494
		L275.494,56.018z M273.453,51.672h2.041c0.408,0,0.781,0.067,1.123,0.205c0.342,0.137,0.635,0.325,0.881,0.57
		c0.248,0.242,0.438,0.527,0.57,0.854c0.135,0.328,0.201,0.683,0.201,1.065v0.016c0,0.383-0.066,0.739-0.201,1.069
		c-0.133,0.331-0.322,0.617-0.57,0.86c-0.246,0.243-0.539,0.435-0.881,0.573c-0.342,0.141-0.715,0.21-1.123,0.21h-2.041V51.672
		L273.453,51.672z M281.965,54.824l-0.695-1.757l-0.693,1.757H281.965L281.965,54.824z M280.754,51.633h1.061l2.24,5.463h-1.203
		l-0.479-1.217h-2.209l-0.479,1.217h-1.17L280.754,51.633L280.754,51.633z M288.271,57.188c-0.385,0-0.74-0.071-1.068-0.217
		c-0.328-0.144-0.611-0.341-0.852-0.594c-0.238-0.249-0.426-0.545-0.559-0.886c-0.137-0.342-0.203-0.705-0.203-1.092v-0.017
		c0-0.388,0.066-0.751,0.203-1.088c0.133-0.339,0.32-0.636,0.559-0.893c0.24-0.254,0.525-0.456,0.859-0.604
		c0.334-0.146,0.701-0.219,1.105-0.219c0.244,0,0.467,0.02,0.668,0.061s0.385,0.099,0.549,0.171c0.166,0.071,0.316,0.16,0.457,0.265
		c0.137,0.102,0.266,0.216,0.387,0.339l-0.73,0.877c-0.205-0.191-0.414-0.341-0.623-0.449c-0.213-0.108-0.451-0.162-0.715-0.162
		c-0.219,0-0.424,0.043-0.609,0.131c-0.186,0.087-0.348,0.209-0.48,0.365c-0.135,0.153-0.24,0.333-0.314,0.537
		c-0.076,0.204-0.111,0.423-0.111,0.654v0.016c0,0.231,0.035,0.453,0.111,0.659c0.074,0.207,0.178,0.387,0.311,0.543
		c0.133,0.153,0.291,0.277,0.477,0.367c0.188,0.091,0.395,0.137,0.617,0.137c0.297,0,0.551-0.059,0.758-0.171
		c0.207-0.114,0.412-0.269,0.615-0.466l0.734,0.769c-0.135,0.149-0.275,0.283-0.42,0.401c-0.145,0.119-0.301,0.221-0.473,0.307
		c-0.174,0.086-0.361,0.149-0.564,0.194C288.754,57.166,288.525,57.188,288.271,57.188L288.271,57.188z M293.555,56.089
		c0.23,0,0.441-0.044,0.633-0.131c0.197-0.09,0.361-0.211,0.498-0.366s0.244-0.335,0.322-0.538c0.078-0.205,0.115-0.422,0.115-0.654
		v-0.017c0-0.232-0.037-0.452-0.115-0.659c-0.078-0.206-0.188-0.386-0.328-0.541c-0.143-0.155-0.311-0.277-0.504-0.368
		c-0.195-0.091-0.408-0.135-0.637-0.135c-0.232,0-0.445,0.043-0.639,0.131c-0.191,0.087-0.357,0.209-0.494,0.365
		c-0.135,0.153-0.242,0.333-0.318,0.537s-0.115,0.423-0.115,0.654v0.016c0,0.231,0.039,0.453,0.115,0.659
		c0.076,0.207,0.186,0.387,0.328,0.543c0.143,0.153,0.309,0.277,0.5,0.367C293.107,56.043,293.322,56.089,293.555,56.089
		L293.555,56.089z M293.539,57.188c-0.404,0-0.771-0.073-1.111-0.22c-0.338-0.148-0.633-0.346-0.879-0.598
		c-0.246-0.251-0.438-0.544-0.572-0.882c-0.139-0.34-0.207-0.702-0.207-1.089v-0.017c0-0.388,0.07-0.751,0.209-1.088
		c0.139-0.339,0.334-0.636,0.578-0.893c0.248-0.254,0.541-0.456,0.883-0.604c0.338-0.146,0.713-0.219,1.115-0.219
		c0.404,0,0.775,0.073,1.113,0.219c0.338,0.148,0.631,0.348,0.879,0.599c0.244,0.248,0.436,0.545,0.572,0.883
		c0.139,0.337,0.205,0.701,0.205,1.088v0.016c0,0.387-0.066,0.751-0.209,1.089c-0.139,0.339-0.332,0.636-0.576,0.892
		c-0.248,0.256-0.541,0.456-0.883,0.604C294.314,57.114,293.943,57.188,293.539,57.188L293.539,57.188z M297.018,51.672h1.238
		l1.375,2.293l1.371-2.293h1.242v5.424h-1.137v-3.542l-1.471,2.317h-0.029l-1.457-2.293v3.518h-1.133V51.672L297.018,51.672z
		 M305.676,52.771h-1.59v-1.1h4.332v1.1h-1.59v4.324h-1.152V52.771L305.676,52.771z M311.281,54.306c0.283,0,0.5-0.069,0.652-0.209
		c0.152-0.139,0.229-0.326,0.229-0.559v-0.016c0-0.258-0.078-0.452-0.24-0.581c-0.16-0.129-0.379-0.193-0.664-0.193h-1.141v1.558
		H311.281L311.281,54.306z M308.965,51.672h2.391c0.662,0,1.17,0.183,1.523,0.55c0.299,0.31,0.447,0.723,0.447,1.239v0.016
		c0,0.438-0.104,0.796-0.311,1.074c-0.205,0.274-0.475,0.478-0.809,0.607l1.275,1.938h-1.344l-1.119-1.736h-0.016h-0.887v1.736
		h-1.152V51.672L308.965,51.672z M317.035,54.824l-0.693-1.757l-0.695,1.757H317.035L317.035,54.824z M315.824,51.633h1.061
		l2.24,5.463h-1.203l-0.477-1.217h-2.209l-0.48,1.217h-1.17L315.824,51.633L315.824,51.633z M322.086,56.049
		c0.256,0,0.455-0.048,0.598-0.144c0.145-0.095,0.217-0.244,0.217-0.444v-0.017c0-0.181-0.066-0.323-0.201-0.43
		c-0.135-0.105-0.352-0.158-0.648-0.158h-1.33v1.192H322.086L322.086,56.049z M321.781,53.865c0.254,0,0.455-0.047,0.605-0.137
		c0.148-0.091,0.221-0.236,0.221-0.438v-0.017c0-0.181-0.063-0.318-0.193-0.415c-0.127-0.095-0.314-0.144-0.559-0.144h-1.135v1.149
		H321.781L321.781,53.865z M319.6,51.672h2.422c0.602,0,1.057,0.159,1.365,0.479c0.238,0.248,0.357,0.557,0.357,0.922v0.016
		c0,0.156-0.018,0.292-0.055,0.409c-0.039,0.12-0.086,0.227-0.15,0.323c-0.061,0.096-0.133,0.18-0.213,0.253
		c-0.08,0.072-0.17,0.134-0.264,0.184c0.301,0.12,0.541,0.283,0.713,0.485c0.174,0.204,0.262,0.487,0.262,0.849v0.015
		c0,0.249-0.047,0.465-0.139,0.651s-0.225,0.342-0.396,0.465c-0.17,0.124-0.377,0.218-0.617,0.28
		c-0.242,0.061-0.508,0.093-0.801,0.093H319.6V51.672L319.6,51.672z M327.662,54.824l-0.693-1.757l-0.695,1.757H327.662
		L327.662,54.824z M326.451,51.633h1.063l2.238,5.463h-1.203l-0.479-1.217h-2.209l-0.479,1.217h-1.17L326.451,51.633L326.451,51.633
		z M330.227,51.672h1.15v4.346h2.607v1.078h-3.758V51.672L330.227,51.672z M334.516,51.672h1.152v2.146h2.121v-2.146h1.148v5.424
		h-1.148v-2.178h-2.121v2.178h-1.152V51.672L334.516,51.672z M342.414,56.089c0.23,0,0.441-0.044,0.635-0.131
		c0.195-0.09,0.359-0.211,0.496-0.366c0.139-0.155,0.246-0.335,0.324-0.538c0.076-0.205,0.113-0.422,0.113-0.654v-0.017
		c0-0.232-0.037-0.452-0.113-0.659c-0.078-0.206-0.189-0.386-0.33-0.541c-0.143-0.155-0.311-0.277-0.504-0.368
		c-0.195-0.091-0.406-0.135-0.637-0.135c-0.232,0-0.445,0.043-0.637,0.131c-0.191,0.087-0.357,0.209-0.494,0.365
		c-0.137,0.153-0.244,0.333-0.32,0.537c-0.078,0.204-0.115,0.423-0.115,0.654v0.016c0,0.231,0.037,0.453,0.115,0.659
		c0.076,0.207,0.188,0.387,0.328,0.543c0.143,0.153,0.311,0.277,0.502,0.367C341.971,56.043,342.182,56.089,342.414,56.089
		L342.414,56.089z M342.398,57.188c-0.404,0-0.771-0.073-1.111-0.22c-0.338-0.148-0.631-0.346-0.877-0.598
		c-0.246-0.251-0.438-0.544-0.574-0.882c-0.139-0.34-0.207-0.702-0.207-1.089v-0.017c0-0.388,0.072-0.751,0.209-1.088
		c0.139-0.339,0.332-0.636,0.58-0.893c0.246-0.254,0.539-0.456,0.881-0.604c0.342-0.146,0.713-0.219,1.115-0.219
		c0.404,0,0.775,0.073,1.113,0.219c0.34,0.148,0.633,0.348,0.879,0.599c0.246,0.248,0.438,0.545,0.572,0.883
		c0.137,0.337,0.207,0.701,0.207,1.088v0.016c0,0.387-0.07,0.751-0.209,1.089c-0.139,0.339-0.332,0.636-0.58,0.892
		c-0.246,0.256-0.539,0.456-0.881,0.604C343.176,57.114,342.803,57.188,342.398,57.188L342.398,57.188z"/>
</g>
</svg>
