<?xml version="1.0" encoding="utf-8"?>
<!-- Generator: Adobe Illustrator 16.0.0, SVG Export Plug-In . SVG Version: 6.00 Build 0)  -->
<!DOCTYPE svg PUBLIC "-//W3C//DTD SVG 1.1//EN" "http://www.w3.org/Graphics/SVG/1.1/DTD/svg11.dtd">
<svg version="1.1" id="Camada_1" xmlns="http://www.w3.org/2000/svg" xmlns:xlink="http://www.w3.org/1999/xlink" x="0px" y="0px"
	 width="453.54px" height="85.04px" viewBox="0 0 453.54 85.04" enable-background="new 0 0 453.54 85.04" xml:space="preserve">
<g>
	<path fill="#FDFBFB" d="M13.654,47.57c2.292,0,3.816-1.065,3.816-2.857v-0.025c0-1.643-1.349-2.294-3.52-2.733
		c-1.308-0.275-1.631-0.45-1.631-0.852v-0.025c0-0.313,0.31-0.565,0.943-0.565c0.835,0,1.78,0.301,2.643,0.865l1.308-1.717
		c-1.024-0.765-2.278-1.165-3.883-1.165c-2.265,0-3.654,1.176-3.654,2.807v0.025c0,1.805,1.551,2.333,3.559,2.758
		c1.282,0.275,1.591,0.476,1.591,0.841v0.024c0,0.376-0.377,0.601-1.079,0.601c-1.092,0-2.13-0.361-3.061-1.053l-1.456,1.617
		C10.391,47.081,11.983,47.57,13.654,47.57L13.654,47.57z M18.148,47.421h7.658v-2.068h-5.068V43.96h4.528v-1.918h-4.528v-1.329
		h5.001v-2.068h-7.591V47.421L18.148,47.421z M31.03,47.595c2.089,0,3.29-0.838,4.18-1.979l-1.969-1.305
		c-0.566,0.641-1.146,1.065-2.13,1.065c-1.321,0-2.251-1.027-2.251-2.342v-0.028c0-1.278,0.93-2.317,2.251-2.317
		c0.903,0,1.522,0.4,2.063,1.026l1.969-1.417c-0.837-1.077-2.077-1.829-4.006-1.829c-2.857,0-4.974,2.005-4.974,4.564v0.023
		C26.163,45.678,28.333,47.595,31.03,47.595L31.03,47.595z M35.741,47.421h2.616v-2.658h1.146l1.901,2.658h3.02l-2.252-3.06
		c1.174-0.464,1.942-1.355,1.942-2.695v-0.025c0-0.865-0.283-1.542-0.836-2.044c-0.634-0.6-1.63-0.952-3.074-0.952h-4.462V47.421
		L35.741,47.421z M38.356,42.857v-2.105h1.712c0.877,0,1.416,0.351,1.416,1.039v0.027c0,0.638-0.512,1.04-1.402,1.04H38.356
		L38.356,42.857z M44.847,47.421h7.657v-2.068h-5.068V43.96h4.53v-1.918h-4.53v-1.329h5.001v-2.068h-7.59V47.421L44.847,47.421z
		 M55.556,47.421h2.616v-6.645h2.831v-2.13h-8.278v2.13h2.831V47.421L55.556,47.421z M59.593,47.421h2.75l0.674-1.568h3.641
		l0.688,1.568h2.804l-4.019-8.839h-2.521L59.593,47.421L59.593,47.421z M63.786,43.96l1.065-2.495l1.052,2.495H63.786L63.786,43.96z
		 M70.479,47.421h2.615v-2.658h1.146l1.9,2.658h3.021l-2.251-3.06c1.173-0.464,1.941-1.355,1.941-2.695v-0.025
		c0-0.865-0.284-1.542-0.835-2.044c-0.635-0.6-1.632-0.952-3.075-0.952h-4.462V47.421L70.479,47.421z M73.095,42.857v-2.105h1.712
		c0.876,0,1.415,0.351,1.415,1.039v0.027c0,0.638-0.511,1.04-1.402,1.04H73.095L73.095,42.857z M79.639,47.421h2.628v-8.775h-2.628
		V47.421L79.639,47.421z M82.651,47.421H85.4l0.674-1.568h3.641l0.688,1.568h2.805l-4.018-8.839h-2.521L82.651,47.421L82.651,47.421
		z M86.844,43.96l1.064-2.495l1.052,2.495H86.844L86.844,43.96z M97.271,47.421h3.586c3.397,0,5.38-1.881,5.38-4.415v-0.023
		c0-2.532-1.955-4.337-5.325-4.337h-3.641V47.421L97.271,47.421z M99.887,45.265v-4.463h1.064c1.564,0,2.602,0.814,2.602,2.219
		v0.024c0,1.417-1.038,2.22-2.602,2.22H99.887L99.887,45.265z M106.997,47.421h7.658v-2.068h-5.07V43.96h4.53v-1.918h-4.53v-1.329
		h5.002v-2.068h-7.59V47.421L106.997,47.421z M119.137,47.421h7.658v-2.068h-5.07V43.96h4.53v-1.918h-4.53v-1.329h5.002v-2.068
		h-7.59V47.421L119.137,47.421z M131.249,47.57c2.292,0,3.815-1.065,3.815-2.857v-0.025c0-1.643-1.349-2.294-3.519-2.733
		c-1.309-0.275-1.631-0.45-1.631-0.852v-0.025c0-0.313,0.309-0.565,0.943-0.565c0.836,0,1.78,0.301,2.643,0.865l1.308-1.717
		c-1.025-0.765-2.278-1.165-3.884-1.165c-2.265,0-3.653,1.176-3.653,2.807v0.025c0,1.805,1.551,2.333,3.559,2.758
		c1.282,0.275,1.591,0.476,1.591,0.841v0.024c0,0.376-0.376,0.601-1.079,0.601c-1.091,0-2.13-0.361-3.06-1.053l-1.457,1.617
		C127.986,47.081,129.577,47.57,131.249,47.57L131.249,47.57z M137.779,47.421h2.615v-6.645h2.832v-2.13h-8.277v2.13h2.831V47.421
		L137.779,47.421z M141.817,47.421h2.75l0.674-1.568h3.641l0.688,1.568h2.803l-4.017-8.839h-2.521L141.817,47.421L141.817,47.421z
		 M146.009,43.96l1.066-2.495l1.052,2.495H146.009L146.009,43.96z M152.702,47.421h3.585c3.399,0,5.381-1.881,5.381-4.415v-0.023
		c0-2.532-1.956-4.337-5.326-4.337h-3.64V47.421L152.702,47.421z M155.317,45.265v-4.463h1.065c1.564,0,2.602,0.814,2.602,2.219
		v0.024c0,1.417-1.038,2.22-2.602,2.22H155.317L155.317,45.265z M167.173,47.595c2.913,0,5.097-2.043,5.097-4.561v-0.028
		c0-2.518-2.157-4.536-5.07-4.536c-2.912,0-5.096,2.042-5.096,4.564v0.023C162.104,45.578,164.261,47.595,167.173,47.595
		L167.173,47.595z M167.2,45.401c-1.429,0-2.413-1.104-2.413-2.367v-0.028c0-1.265,0.957-2.343,2.386-2.343
		c1.443,0,2.427,1.104,2.427,2.371v0.023C169.601,44.324,168.643,45.401,167.2,45.401L167.2,45.401z M42.144,60.656h3.586
		c3.397,0,5.38-1.879,5.38-4.413V56.22c0-2.531-1.956-4.337-5.326-4.337h-3.64V60.656L42.144,60.656z M44.759,58.501v-4.462h1.065
		c1.564,0,2.602,0.813,2.602,2.218v0.025c0,1.416-1.038,2.219-2.602,2.219H44.759L44.759,58.501z M50.44,60.656h2.751l0.673-1.566
		h3.641l0.688,1.566h2.804l-4.017-8.838h-2.521L50.44,60.656L50.44,60.656z M54.634,57.197l1.065-2.494l1.051,2.494H54.634
		L54.634,57.197z M65.061,60.656h7.658v-2.067h-5.069v-1.392h4.529v-1.918h-4.529v-1.328h5.002v-2.068h-7.591V60.656L65.061,60.656z
		 M73.465,60.656h3.586c3.399,0,5.38-1.879,5.38-4.413V56.22c0-2.531-1.956-4.337-5.326-4.337h-3.64V60.656L73.465,60.656z
		 M76.081,58.501v-4.462h1.065c1.564,0,2.603,0.813,2.603,2.218v0.025c0,1.416-1.038,2.219-2.603,2.219H76.081L76.081,58.501z
		 M87.438,60.82c2.684,0,4.423-1.242,4.423-4.074v-4.863h-2.655v4.938c0,1.228-0.689,1.805-1.74,1.805
		c-1.052,0-1.74-0.602-1.74-1.868v-4.875H83.07v4.926C83.07,59.554,84.755,60.82,87.438,60.82L87.438,60.82z M97.367,60.832
		c2.089,0,3.29-0.839,4.18-1.98l-1.969-1.304c-0.566,0.64-1.146,1.065-2.13,1.065c-1.322,0-2.251-1.028-2.251-2.344v-0.026
		c0-1.277,0.93-2.317,2.251-2.317c0.903,0,1.522,0.399,2.063,1.027l1.969-1.415c-0.837-1.079-2.077-1.832-4.006-1.832
		c-2.857,0-4.975,2.006-4.975,4.563v0.024C92.5,58.914,94.67,60.832,97.367,60.832L97.367,60.832z M101.242,60.656h2.75l0.674-1.566
		h3.64l0.688,1.566h2.804l-4.019-8.838h-2.521L101.242,60.656L101.242,60.656z M105.434,57.197l1.065-2.494l1.052,2.494H105.434
		L105.434,57.197z M115.808,62.826l0.755-2.02c1.792-0.125,2.858-0.901,3.681-1.955l-1.968-1.304
		c-0.566,0.64-1.147,1.065-2.13,1.065c-1.321,0-2.251-1.028-2.251-2.344v-0.026c0-1.277,0.93-2.317,2.251-2.317
		c0.903,0,1.523,0.399,2.063,1.027l1.969-1.415c-0.836-1.079-2.077-1.832-4.005-1.832c-2.858,0-4.975,2.006-4.975,4.563v0.024
		c0,2.207,1.537,3.925,3.64,4.4l-1.052,1.328L115.808,62.826L115.808,62.826z M119.952,60.656h2.75l0.675-1.566h3.64l0.688,1.566
		h2.805l-4.018-8.838h-2.521L119.952,60.656L119.952,60.656z M124.145,57.197l1.065-2.494l1.052,2.494H124.145L124.145,57.197z
		 M123.579,51.257c0.175-0.403,0.337-0.59,0.715-0.59c0.431,0,1.415,0.488,2.224,0.488c0.917,0,1.402-0.614,1.686-1.854
		l-1.228-0.313c-0.175,0.389-0.323,0.576-0.7,0.576c-0.445,0-1.416-0.488-2.225-0.488c-0.93,0-1.402,0.628-1.699,1.867
		L123.579,51.257L123.579,51.257z M134.977,60.832c2.913,0,5.098-2.043,5.098-4.563v-0.026c0-2.518-2.158-4.537-5.071-4.537
		c-2.912,0-5.096,2.043-5.096,4.563v0.024C129.908,58.814,132.065,60.832,134.977,60.832L134.977,60.832z M135.003,58.639
		c-1.429,0-2.413-1.103-2.413-2.369v-0.026c0-1.265,0.957-2.343,2.386-2.343c1.444,0,2.427,1.104,2.427,2.369v0.024
		C137.404,57.562,136.447,58.639,135.003,58.639L135.003,58.639z"/>
	<path fill="#FDFBFB" d="M318.434,27.754c-0.686,0-1.312-0.106-1.877-0.314c-0.565-0.211-1.05-0.503-1.456-0.875
		c-0.404-0.374-0.721-0.818-0.947-1.331c-0.225-0.514-0.338-1.074-0.338-1.681v-0.022c0-0.583,0.115-1.13,0.345-1.639
		c0.23-0.509,0.551-0.957,0.958-1.342c0.412-0.385,0.896-0.688,1.458-0.911c0.56-0.222,1.176-0.331,1.844-0.331
		c0.396,0,0.75,0.024,1.073,0.075s0.622,0.123,0.895,0.215c0.279,0.093,0.539,0.21,0.781,0.351c0.243,0.139,0.478,0.298,0.701,0.478
		l-1.216,1.364c-0.167-0.132-0.336-0.248-0.503-0.349c-0.167-0.101-0.339-0.188-0.52-0.258c-0.181-0.069-0.374-0.124-0.584-0.163
		c-0.209-0.04-0.439-0.057-0.688-0.057c-0.353,0-0.681,0.066-0.985,0.204c-0.307,0.135-0.572,0.32-0.805,0.55
		c-0.229,0.228-0.41,0.498-0.539,0.806c-0.129,0.307-0.195,0.638-0.195,0.987v0.025c0,0.372,0.066,0.718,0.195,1.035
		c0.129,0.317,0.313,0.591,0.552,0.823c0.238,0.233,0.519,0.418,0.841,0.545c0.323,0.129,0.68,0.193,1.072,0.193
		c0.72,0,1.326-0.165,1.82-0.495v-1.174h-1.946v-1.552h3.814v3.547c-0.452,0.358-0.987,0.663-1.613,0.916
		C319.951,27.627,319.236,27.754,318.434,27.754L318.434,27.754z M327.366,26.098c0.385,0,0.74-0.066,1.067-0.199
		c0.326-0.132,0.604-0.315,0.833-0.549c0.229-0.233,0.409-0.502,0.541-0.811c0.128-0.307,0.194-0.635,0.194-0.986v-0.022
		c0-0.35-0.066-0.681-0.194-0.991c-0.132-0.312-0.315-0.584-0.554-0.817s-0.521-0.418-0.845-0.553
		c-0.327-0.138-0.684-0.204-1.068-0.204c-0.394,0-0.751,0.065-1.073,0.198c-0.322,0.132-0.599,0.315-0.828,0.548
		c-0.23,0.234-0.411,0.505-0.539,0.812c-0.129,0.307-0.194,0.635-0.194,0.986v0.023c0,0.351,0.065,0.68,0.194,0.992
		c0.128,0.31,0.313,0.582,0.55,0.816c0.239,0.234,0.521,0.417,0.843,0.555C326.615,26.029,326.972,26.098,327.366,26.098
		L327.366,26.098z M327.341,27.754c-0.679,0-1.301-0.111-1.869-0.333c-0.569-0.222-1.062-0.521-1.476-0.899
		c-0.415-0.377-0.735-0.819-0.965-1.329c-0.231-0.509-0.346-1.056-0.346-1.641v-0.022c0-0.583,0.118-1.13,0.352-1.639
		c0.235-0.509,0.558-0.957,0.973-1.342c0.413-0.385,0.907-0.688,1.481-0.911c0.571-0.222,1.197-0.331,1.875-0.331
		s1.302,0.109,1.871,0.331c0.567,0.222,1.059,0.523,1.474,0.9c0.412,0.377,0.736,0.819,0.967,1.329
		c0.229,0.511,0.344,1.056,0.344,1.64v0.023c0,0.583-0.117,1.129-0.352,1.639c-0.234,0.51-0.559,0.958-0.973,1.341
		c-0.414,0.385-0.907,0.689-1.479,0.911C328.644,27.644,328.019,27.754,327.341,27.754L327.341,27.754z M332.02,19.447h2.134
		l2.295,5.752l2.299-5.752h2.082l-3.55,8.226h-1.709L332.02,19.447L332.02,19.447z M341.217,19.447h6.612v1.6h-4.706v1.657h4.142
		v1.598h-4.142v1.714h4.77v1.6h-6.676V19.447L341.217,19.447z M352.547,23.415c0.479,0,0.843-0.106,1.097-0.315
		c0.255-0.21,0.383-0.491,0.383-0.84v-0.023c0-0.39-0.134-0.681-0.399-0.875c-0.269-0.196-0.643-0.292-1.118-0.292h-1.919v2.345
		H352.547L352.547,23.415z M348.657,19.447h4.015c1.113,0,1.966,0.278,2.561,0.829c0.502,0.467,0.752,1.089,0.752,1.865v0.025
		c0,0.661-0.174,1.2-0.521,1.616s-0.802,0.722-1.361,0.916l2.146,2.917h-2.259l-1.883-2.614h-0.023h-1.493v2.614h-1.933V19.447
		L348.657,19.447z M356.762,19.447h1.782l4.116,5.029v-5.029h1.907v8.168h-1.646l-4.254-5.193v5.193h-1.906V19.447L356.762,19.447z
		 M369.998,26.098c0.385,0,0.74-0.066,1.067-0.199c0.324-0.132,0.604-0.315,0.834-0.549c0.23-0.233,0.411-0.502,0.539-0.811
		c0.129-0.307,0.195-0.635,0.195-0.986v-0.022c0-0.35-0.066-0.681-0.195-0.991c-0.128-0.312-0.313-0.584-0.55-0.817
		c-0.239-0.233-0.523-0.418-0.85-0.553c-0.327-0.138-0.681-0.204-1.066-0.204c-0.392,0-0.75,0.065-1.07,0.198
		c-0.325,0.132-0.601,0.315-0.83,0.548c-0.229,0.234-0.411,0.505-0.539,0.812c-0.129,0.307-0.194,0.635-0.194,0.986v0.023
		c0,0.351,0.065,0.68,0.194,0.992c0.128,0.31,0.313,0.582,0.553,0.816c0.237,0.234,0.517,0.417,0.838,0.555
		C369.247,26.029,369.605,26.098,369.998,26.098L369.998,26.098z M369.973,27.754c-0.678,0-1.301-0.111-1.868-0.333
		c-0.569-0.222-1.06-0.521-1.475-0.899c-0.414-0.377-0.735-0.819-0.967-1.329c-0.229-0.509-0.345-1.056-0.345-1.641v-0.022
		c0-0.583,0.116-1.13,0.352-1.639c0.234-0.509,0.559-0.957,0.972-1.342c0.415-0.385,0.907-0.688,1.479-0.911
		c0.574-0.222,1.201-0.331,1.878-0.331c0.679,0,1.3,0.109,1.869,0.331c0.569,0.222,1.063,0.523,1.476,0.9
		c0.415,0.377,0.735,0.819,0.965,1.329c0.231,0.511,0.346,1.056,0.346,1.64v0.023c0,0.583-0.118,1.129-0.352,1.639
		c-0.234,0.51-0.558,0.958-0.972,1.341c-0.414,0.385-0.908,0.689-1.482,0.911C371.276,27.644,370.651,27.754,369.973,27.754
		L369.973,27.754z M382.597,25.992c0.393,0,0.753-0.057,1.078-0.175c0.327-0.116,0.604-0.284,0.835-0.501
		c0.229-0.218,0.41-0.475,0.539-0.77s0.195-0.627,0.195-0.993v-0.022c0-0.357-0.066-0.689-0.195-0.991
		c-0.129-0.303-0.31-0.564-0.539-0.782c-0.23-0.218-0.508-0.386-0.835-0.507c-0.325-0.121-0.686-0.181-1.078-0.181h-1.494v4.923
		H382.597L382.597,25.992z M379.168,19.447h3.429c0.685,0,1.313,0.103,1.886,0.311c0.575,0.206,1.068,0.491,1.483,0.856
		c0.413,0.366,0.733,0.795,0.96,1.29c0.226,0.493,0.338,1.028,0.338,1.604v0.023c0,0.576-0.112,1.113-0.338,1.611
		c-0.227,0.496-0.547,0.929-0.96,1.294c-0.415,0.365-0.908,0.652-1.483,0.864c-0.572,0.208-1.201,0.315-1.886,0.315h-3.429V19.447
		L379.168,19.447z M388.016,19.447h6.612v1.6h-4.707v1.657h4.143v1.598h-4.143v1.714h4.771v1.6h-6.676V19.447L388.016,19.447z"/>
	<path fill="#FDFBFB" d="M294.737,55.322c-2.233,0-4.354-0.32-6.361-0.967s-3.781-1.613-5.324-2.899l3.847-4.284
		c2.493,1.854,5.19,2.783,8.089,2.783c0.927,0,1.635-0.138,2.12-0.415c0.488-0.275,0.729-0.667,0.729-1.176v-0.062
		c0-0.243-0.057-0.458-0.176-0.646c-0.121-0.188-0.34-0.369-0.661-0.547c-0.321-0.177-0.748-0.348-1.281-0.513
		c-0.535-0.166-1.231-0.338-2.085-0.514c-1.331-0.288-2.566-0.602-3.706-0.939c-1.14-0.342-2.135-0.783-2.976-1.325
		c-0.843-0.541-1.509-1.215-1.994-2.016c-0.488-0.806-0.733-1.805-0.733-2.992v-0.067c0-1.082,0.223-2.077,0.658-2.978
		c0.441-0.904,1.084-1.689,1.926-2.352c0.843-0.656,1.861-1.17,3.046-1.534c1.188-0.366,2.531-0.547,4.027-0.547
		c2.139,0,4.046,0.26,5.72,0.784c1.676,0.519,3.19,1.292,4.544,2.314l-3.457,4.555c-1.14-0.75-2.311-1.32-3.51-1.707
		c-1.2-0.385-2.357-0.58-3.474-0.58c-0.832,0-1.455,0.144-1.871,0.431c-0.415,0.288-0.624,0.642-0.624,1.061v0.065
		c0,0.26,0.065,0.491,0.196,0.69s0.358,0.38,0.678,0.547c0.32,0.167,0.758,0.332,1.317,0.498c0.559,0.165,1.267,0.336,2.119,0.512
		c1.427,0.288,2.716,0.625,3.867,1.005c1.153,0.387,2.134,0.856,2.941,1.41c0.807,0.551,1.425,1.221,1.853,1.997
		c0.427,0.785,0.642,1.717,0.642,2.794v0.067c0,1.193-0.244,2.252-0.731,3.174c-0.486,0.928-1.17,1.718-2.048,2.371
		c-0.879,0.645-1.937,1.142-3.173,1.485C297.636,55.149,296.259,55.322,294.737,55.322L294.737,55.322z M305.675,31.732h20.026V37.2
		H312.48v3.511h11.974v5.069H312.48v3.678h13.398v5.468h-20.204V31.732L305.675,31.732z M338.419,42.865
		c1.186,0,2.101-0.249,2.742-0.746c0.642-0.497,0.963-1.166,0.963-2.004v-0.067c0-0.927-0.335-1.617-0.999-2.069
		c-0.664-0.454-1.58-0.679-2.744-0.679h-4.525v5.565H338.419L338.419,42.865z M326.943,31.732h11.795
		c1.925,0,3.551,0.222,4.881,0.664c1.331,0.441,2.413,1.06,3.243,1.854c1.474,1.325,2.211,3.126,2.211,5.401v0.065
		c0,1.79-0.464,3.27-1.388,4.44c-0.929,1.173-2.178,2.066-3.744,2.685l5.951,8.084h-7.983l-5.022-7.023h-0.073h-2.958v7.023h-6.912
		V31.732L326.943,31.732z M362.786,55.389c-1.946,0-3.748-0.292-5.399-0.878c-1.647-0.586-3.081-1.409-4.292-2.469
		c-1.212-1.061-2.163-2.325-2.851-3.794c-0.688-1.469-1.033-3.087-1.033-4.853v-0.067c0-1.678,0.339-3.253,1.01-4.722
		c0.676-1.469,1.603-2.75,2.785-3.842c1.183-1.094,2.595-1.95,4.245-2.569c1.647-0.617,3.435-0.927,5.358-0.927
		c2.21,0,4.113,0.298,5.72,0.894c1.604,0.597,3.07,1.425,4.401,2.485l-4.063,4.54c-0.903-0.707-1.826-1.249-2.762-1.625
		c-0.938-0.375-2.026-0.563-3.262-0.563c-0.903,0-1.739,0.165-2.513,0.496c-0.772,0.331-1.442,0.785-2.012,1.357
		c-0.57,0.575-1.023,1.249-1.354,2.022c-0.332,0.773-0.499,1.601-0.499,2.484v0.067c0,0.927,0.167,1.789,0.499,2.583
		c0.331,0.796,0.806,1.475,1.413,2.039c0.606,0.563,1.325,1.003,2.144,1.325c0.827,0.319,1.737,0.48,2.738,0.48
		c1.623,0,2.953-0.32,4.004-0.962v-2.816h-4.919v-4.705h11.475v10.438c-1.33,1.015-2.898,1.865-4.703,2.551
		C367.111,55.046,365.068,55.389,362.786,55.389L362.786,55.389z M375.112,31.732h6.949v23.193h-6.949V31.732L375.112,31.732z
		 M393.604,43.262c1.233,0,2.202-0.27,2.903-0.816c0.7-0.542,1.053-1.282,1.053-2.215v-0.067c0-0.999-0.353-1.761-1.053-2.28
		c-0.701-0.524-1.681-0.784-2.939-0.784h-3.244v6.162H393.604L393.604,43.262z M383.411,31.732h10.69
		c1.567,0,2.994,0.183,4.276,0.547c1.281,0.366,2.375,0.895,3.279,1.591c0.903,0.695,1.595,1.551,2.084,2.567
		c0.485,1.016,0.73,2.165,0.73,3.445v0.067c0,1.368-0.268,2.573-0.803,3.61c-0.533,1.038-1.276,1.91-2.228,2.617
		c-0.951,0.706-2.084,1.236-3.403,1.59c-1.317,0.354-2.75,0.531-4.294,0.531h-3.421v6.626h-6.912V31.732L383.411,31.732z
		 M405.25,31.732h20.028V37.2h-13.221v3.511h11.972v5.069h-11.972v3.678h13.399v5.468H405.25V31.732L405.25,31.732z"/>
	<path fill-rule="evenodd" clip-rule="evenodd" fill="#FDFBFB" d="M269.491,51.401c3.026,2.262,3.51,6.376,1.077,9.192
		c-2.433,2.815-6.858,3.264-9.889,1.002c-3.028-2.263-3.509-6.377-1.078-9.191C262.035,49.588,266.462,49.139,269.491,51.401
		L269.491,51.401z"/>
	<path fill-rule="evenodd" clip-rule="evenodd" fill="#FDFBFB" d="M208.648,48.636c-0.321,1.988-0.111,3.991,0.516,5.923
		c0.021,0.094,0.041,0.188,0.062,0.278c2.291,9.912,12.792,16.222,23.454,14.091c1.483-0.297,2.892-0.741,4.212-1.313
		c1.383-0.561,2.723-1.32,3.997-2.292c9.034-6.353,12.717-19.32,9.709-31.862c-0.418-2.143-1.029-4.282-1.839-6.385
		c9.462,19.677,5.703,41.476,5.703,41.476c7.784,1.817,14.637-0.635,20.432-5.624c-5.392,10.792-14.932,16.021-27.424,16.581
		C225.464,80.492,205.302,65.063,208.648,48.636L208.648,48.636z"/>
	<path fill-rule="evenodd" clip-rule="evenodd" fill="#FDFBFB" d="M206.969,16.108c0.643-3.562,4.268-5.966,8.098-5.368
		c3.832,0.597,6.417,3.967,5.775,7.529c-0.643,3.561-4.267,5.963-8.099,5.369C208.914,23.041,206.329,19.67,206.969,16.108
		L206.969,16.108z"/>
	<path fill-rule="evenodd" clip-rule="evenodd" fill="#FDFBFB" d="M234.124,66.804c2.022-0.712,3.799-1.86,5.305-3.314
		c0.077-0.063,0.156-0.123,0.23-0.185c8.182-6.706,8.966-18.307,1.753-25.912c-1.003-1.058-2.108-1.983-3.291-2.773
		c-1.203-0.847-2.568-1.565-4.104-2.123c-10.378-4.219-24.344-0.865-34.642,7.707c-1.806,1.385-3.515,2.928-5.091,4.612
		c13.834-17.296,36.126-24.905,36.126-24.905c-2.103-7.203-7.753-11.563-15.267-13.82c12.761-0.906,22.333,4.276,28.966,14.133
		C255.791,37.588,251.173,61.486,234.124,66.804L234.124,66.804z"/>
	<path fill-rule="evenodd" clip-rule="evenodd" fill="#FDFBFB" d="M205.023,84.123c-3.637,1.263-7.689-0.454-9.049-3.838
		c-1.359-3.382,0.487-7.149,4.125-8.414c3.639-1.264,7.69,0.455,9.05,3.838C210.509,79.091,208.662,82.858,205.023,84.123
		L205.023,84.123z"/>
	<path fill-rule="evenodd" clip-rule="evenodd" fill="#FDFBFB" d="M238.668,36.909c-1.673-1.271-3.633-2.128-5.741-2.613
		c-0.096-0.033-0.188-0.064-0.285-0.095c-10.337-3.233-21.535,1.936-25.012,11.544c-0.484,1.338-0.793,2.69-0.938,4.037
		c-0.188,1.393-0.174,2.853,0.075,4.369c1.259,10.463,11.365,20.032,24.499,24.037c2.194,0.761,4.485,1.364,6.842,1.793
		c-23.027-2.491-41.261-16.636-41.261-16.636c-5.658,5.293-6.893,12.022-5.24,19.203c-7.222-9.822-7.182-20.12-1.316-30.388
		C200.621,34.073,225.19,25.843,238.668,36.909L238.668,36.909z"/>
	<path fill="#FDFBFB" d="M287.209,64.72l-0.841-1.902l-0.838,1.902H287.209L287.209,64.72z M285.749,61.265h1.28l2.705,5.913h-1.452
		l-0.578-1.317h-2.67l-0.577,1.317h-1.416L285.749,61.265L285.749,61.265z M294.846,67.277c-0.494,0-0.942-0.075-1.35-0.225
		c-0.406-0.152-0.752-0.36-1.045-0.63c-0.293-0.269-0.519-0.587-0.682-0.956c-0.162-0.369-0.242-0.771-0.242-1.207v-0.019
		c0-0.419,0.081-0.813,0.247-1.178c0.164-0.366,0.395-0.688,0.689-0.966c0.295-0.274,0.645-0.494,1.046-0.654
		c0.404-0.157,0.844-0.237,1.327-0.237c0.283,0,0.539,0.018,0.771,0.054c0.232,0.037,0.446,0.088,0.645,0.155
		c0.198,0.065,0.387,0.151,0.56,0.253c0.175,0.099,0.342,0.213,0.506,0.342l-0.876,0.982c-0.119-0.096-0.239-0.179-0.359-0.252
		c-0.121-0.073-0.246-0.134-0.376-0.186c-0.127-0.05-0.268-0.087-0.42-0.117c-0.147-0.027-0.313-0.04-0.495-0.04
		c-0.253,0-0.487,0.048-0.708,0.146c-0.219,0.098-0.411,0.23-0.577,0.395c-0.166,0.165-0.294,0.357-0.388,0.58
		c-0.092,0.222-0.139,0.459-0.139,0.712v0.016c0,0.268,0.047,0.517,0.139,0.742c0.094,0.229,0.226,0.427,0.397,0.595
		c0.17,0.167,0.371,0.299,0.604,0.392c0.231,0.091,0.487,0.138,0.771,0.138c0.518,0,0.952-0.119,1.308-0.355v-0.845h-1.397v-1.114
		h2.741v2.549c-0.324,0.258-0.711,0.477-1.157,0.657C295.936,67.188,295.424,67.277,294.846,67.277L294.846,67.277z M298.477,61.307
		h4.754v1.149h-3.384v1.188h2.977v1.15h-2.977v1.233h3.43v1.149h-4.8V61.307L298.477,61.307z M304.121,61.307h1.279l2.96,3.615
		v-3.615h1.372v5.871h-1.183l-3.059-3.732v3.732h-1.37V61.307L304.121,61.307z M312.316,62.497h-1.922v-1.19h5.23v1.19h-1.919v4.681
		h-1.39V62.497L312.316,62.497z M316.29,61.307h4.756v1.149h-3.385v1.188h2.977v1.15h-2.977v1.233h3.429v1.149h-4.8V61.307
		L316.29,61.307z M326.455,67.277c-0.464,0-0.894-0.077-1.291-0.234c-0.396-0.156-0.739-0.369-1.029-0.643
		c-0.287-0.271-0.515-0.59-0.675-0.959c-0.164-0.37-0.244-0.764-0.244-1.182v-0.019c0-0.419,0.08-0.813,0.244-1.178
		c0.16-0.366,0.388-0.688,0.675-0.966c0.29-0.274,0.635-0.494,1.038-0.654c0.404-0.157,0.848-0.237,1.336-0.237
		c0.293,0,0.564,0.021,0.807,0.066c0.243,0.044,0.465,0.106,0.662,0.185c0.2,0.077,0.383,0.174,0.553,0.286
		c0.167,0.11,0.325,0.234,0.469,0.367l-0.886,0.949c-0.245-0.207-0.496-0.369-0.752-0.486s-0.544-0.176-0.862-0.176
		c-0.263,0-0.509,0.047-0.734,0.142c-0.227,0.095-0.42,0.227-0.582,0.396c-0.163,0.166-0.289,0.36-0.381,0.582
		c-0.09,0.221-0.135,0.457-0.135,0.708v0.017c0,0.251,0.045,0.49,0.135,0.714c0.092,0.224,0.216,0.419,0.377,0.588
		c0.157,0.166,0.351,0.3,0.576,0.397c0.227,0.098,0.475,0.147,0.744,0.147c0.36,0,0.666-0.063,0.915-0.185
		c0.25-0.124,0.499-0.291,0.745-0.505l0.884,0.832c-0.163,0.162-0.33,0.307-0.505,0.435c-0.176,0.129-0.364,0.239-0.573,0.332
		s-0.435,0.162-0.68,0.211C327.037,67.254,326.762,67.277,326.455,67.277L326.455,67.277z M332.387,67.269
		c-0.849,0-1.516-0.216-2.003-0.652c-0.489-0.438-0.731-1.089-0.731-1.956v-3.354h1.389v3.321c0,0.48,0.122,0.843,0.362,1.086
		s0.574,0.365,1,0.365c0.427,0,0.762-0.117,1.003-0.352c0.24-0.236,0.361-0.588,0.361-1.059v-3.362h1.388v3.313
		c0,0.448-0.064,0.837-0.194,1.166c-0.13,0.33-0.313,0.605-0.555,0.826s-0.531,0.386-0.872,0.494
		C333.188,67.215,332.809,67.269,332.387,67.269L332.387,67.269z M336.234,61.307h1.388v5.871h-1.388V61.307L336.234,61.307z
		 M341.265,66.011c0.282,0,0.54-0.041,0.775-0.124c0.232-0.085,0.435-0.206,0.599-0.363c0.168-0.154,0.296-0.341,0.388-0.553
		c0.094-0.212,0.141-0.448,0.141-0.711v-0.019c0-0.256-0.047-0.495-0.141-0.713c-0.092-0.218-0.22-0.404-0.388-0.562
		c-0.164-0.157-0.366-0.277-0.599-0.364c-0.235-0.087-0.493-0.131-0.775-0.131h-1.075v3.539H341.265L341.265,66.011z M338.8,61.307
		h2.465c0.493,0,0.944,0.073,1.357,0.223c0.412,0.147,0.766,0.352,1.064,0.617c0.297,0.262,0.527,0.57,0.689,0.925
		c0.162,0.355,0.242,0.739,0.242,1.153v0.017c0,0.415-0.08,0.801-0.242,1.157c-0.162,0.358-0.393,0.669-0.689,0.932
		c-0.299,0.264-0.652,0.471-1.064,0.62c-0.413,0.152-0.864,0.228-1.357,0.228H338.8V61.307L338.8,61.307z M349.082,64.72
		l-0.839-1.902l-0.84,1.902H349.082L349.082,64.72z M347.619,61.265h1.282l2.706,5.913h-1.454l-0.578-1.317h-2.67l-0.576,1.317
		h-1.414L347.619,61.265L347.619,61.265z M356.701,67.277c-0.465,0-0.894-0.077-1.29-0.234c-0.398-0.156-0.74-0.369-1.029-0.643
		c-0.288-0.271-0.515-0.59-0.676-0.959c-0.164-0.37-0.244-0.764-0.244-1.182v-0.019c0-0.419,0.08-0.813,0.244-1.178
		c0.161-0.366,0.388-0.688,0.676-0.966c0.289-0.274,0.635-0.494,1.037-0.654c0.403-0.157,0.848-0.237,1.336-0.237
		c0.295,0,0.563,0.021,0.808,0.066c0.243,0.044,0.465,0.106,0.663,0.185c0.199,0.077,0.381,0.174,0.55,0.286
		c0.168,0.11,0.323,0.234,0.468,0.367l-0.882,0.949c-0.247-0.207-0.499-0.369-0.753-0.486c-0.257-0.117-0.545-0.176-0.862-0.176
		c-0.266,0-0.512,0.047-0.735,0.142c-0.226,0.095-0.42,0.227-0.583,0.396c-0.162,0.166-0.289,0.36-0.378,0.582
		c-0.092,0.221-0.135,0.457-0.135,0.708v0.017c0,0.251,0.043,0.49,0.135,0.714c0.089,0.224,0.214,0.419,0.374,0.588
		c0.161,0.166,0.352,0.3,0.577,0.397s0.476,0.147,0.745,0.147c0.358,0,0.665-0.063,0.916-0.185c0.249-0.124,0.497-0.291,0.743-0.505
		l0.885,0.832c-0.162,0.162-0.331,0.307-0.505,0.435c-0.176,0.129-0.365,0.239-0.573,0.332c-0.207,0.093-0.435,0.162-0.682,0.211
		C357.284,67.254,357.008,67.277,356.701,67.277L356.701,67.277z M363.084,66.088c0.277,0,0.531-0.048,0.766-0.142
		c0.235-0.097,0.435-0.229,0.602-0.396c0.164-0.168,0.294-0.362,0.388-0.582c0.094-0.222,0.138-0.457,0.138-0.708v-0.019
		c0-0.251-0.044-0.489-0.138-0.713s-0.227-0.418-0.396-0.586c-0.173-0.168-0.377-0.301-0.61-0.398
		c-0.235-0.099-0.492-0.146-0.769-0.146c-0.281,0-0.539,0.047-0.771,0.142c-0.23,0.095-0.432,0.227-0.597,0.396
		c-0.164,0.166-0.294,0.36-0.387,0.582c-0.093,0.221-0.14,0.457-0.14,0.708v0.017c0,0.251,0.047,0.49,0.14,0.714
		s0.226,0.419,0.396,0.588c0.172,0.166,0.374,0.3,0.605,0.397S362.802,66.088,363.084,66.088L363.084,66.088z M363.064,67.277
		c-0.487,0-0.934-0.079-1.344-0.238c-0.408-0.16-0.763-0.374-1.061-0.646c-0.296-0.271-0.528-0.589-0.692-0.955
		c-0.167-0.367-0.249-0.76-0.249-1.178v-0.019c0-0.419,0.084-0.813,0.253-1.178c0.167-0.366,0.402-0.688,0.698-0.966
		c0.298-0.274,0.652-0.494,1.065-0.654c0.41-0.157,0.861-0.237,1.349-0.237s0.936,0.08,1.344,0.237
		c0.409,0.16,0.763,0.376,1.062,0.647c0.297,0.27,0.527,0.59,0.692,0.956c0.166,0.365,0.247,0.759,0.247,1.178v0.017
		c0,0.419-0.081,0.813-0.251,1.179c-0.168,0.367-0.401,0.688-0.697,0.965c-0.299,0.277-0.654,0.494-1.067,0.654
		C364.001,67.198,363.552,67.277,363.064,67.277L363.064,67.277z M367.265,61.307h1.499l1.66,2.482l1.658-2.482h1.498v5.871h-1.372
		v-3.834l-1.776,2.509h-0.036l-1.76-2.482v3.808h-1.371V61.307L367.265,61.307z M377.727,62.497h-1.921v-1.19h5.231v1.19h-1.92
		v4.681h-1.391V62.497L377.727,62.497z M384.498,64.158c0.342,0,0.604-0.075,0.789-0.227c0.184-0.15,0.274-0.354,0.274-0.604v-0.017
		c0-0.279-0.095-0.49-0.289-0.63c-0.193-0.139-0.459-0.209-0.802-0.209h-1.38v1.687H384.498L384.498,64.158z M381.7,61.307h2.887
		c0.801,0,1.414,0.198,1.841,0.596c0.36,0.335,0.541,0.782,0.541,1.341v0.018c0,0.475-0.125,0.861-0.374,1.162
		c-0.249,0.298-0.575,0.518-0.979,0.658l1.542,2.097h-1.624l-1.354-1.879h-0.017h-1.073v1.879H381.7V61.307L381.7,61.307z
		 M391.449,64.72l-0.839-1.902l-0.84,1.902H391.449L391.449,64.72z M389.986,61.265h1.282l2.705,5.913h-1.453l-0.576-1.317h-2.67
		l-0.578,1.317h-1.415L389.986,61.265L389.986,61.265z M397.552,66.045c0.308,0,0.548-0.052,0.72-0.155
		c0.177-0.103,0.264-0.265,0.264-0.481v-0.018c0-0.195-0.081-0.351-0.243-0.465c-0.163-0.114-0.424-0.172-0.785-0.172h-1.605v1.291
		H397.552L397.552,66.045z M397.184,63.681c0.305,0,0.548-0.05,0.729-0.147c0.182-0.099,0.269-0.256,0.269-0.474v-0.018
		c0-0.196-0.076-0.345-0.235-0.449c-0.153-0.103-0.38-0.155-0.674-0.155h-1.371v1.243H397.184L397.184,63.681z M394.548,61.307
		h2.927c0.726,0,1.275,0.173,1.647,0.52c0.288,0.269,0.433,0.603,0.433,0.998v0.017c0,0.169-0.022,0.316-0.067,0.443
		c-0.046,0.13-0.104,0.245-0.18,0.35c-0.074,0.104-0.16,0.194-0.258,0.273c-0.099,0.078-0.207,0.145-0.319,0.199
		c0.363,0.13,0.652,0.306,0.861,0.525c0.211,0.221,0.315,0.527,0.315,0.918v0.017c0,0.27-0.056,0.503-0.167,0.705
		c-0.111,0.201-0.272,0.369-0.478,0.503c-0.206,0.134-0.456,0.235-0.748,0.303c-0.291,0.066-0.614,0.101-0.967,0.101h-3V61.307
		L394.548,61.307z M404.287,64.72l-0.838-1.902l-0.84,1.902H404.287L404.287,64.72z M402.824,61.265h1.282l2.707,5.913h-1.454
		l-0.578-1.317h-2.67l-0.578,1.317h-1.414L402.824,61.265L402.824,61.265z M407.386,61.307h1.389v4.704h3.149v1.167h-4.538V61.307
		L407.386,61.307z M412.567,61.307h1.391v2.323h2.563v-2.323h1.39v5.871h-1.39V64.82h-2.563v2.357h-1.391V61.307L412.567,61.307z
		 M422.108,66.088c0.278,0,0.532-0.048,0.768-0.142c0.235-0.097,0.435-0.229,0.6-0.396c0.166-0.168,0.296-0.362,0.39-0.582
		c0.093-0.222,0.139-0.457,0.139-0.708v-0.019c0-0.251-0.046-0.489-0.139-0.713c-0.094-0.224-0.228-0.418-0.398-0.586
		s-0.375-0.301-0.608-0.398c-0.235-0.099-0.491-0.146-0.768-0.146c-0.282,0-0.539,0.047-0.771,0.142s-0.432,0.227-0.596,0.396
		c-0.166,0.166-0.296,0.36-0.389,0.582c-0.093,0.221-0.139,0.457-0.139,0.708v0.017c0,0.251,0.046,0.49,0.139,0.714
		s0.227,0.419,0.396,0.588c0.172,0.166,0.375,0.3,0.606,0.397C421.571,66.038,421.828,66.088,422.108,66.088L422.108,66.088z
		 M422.091,67.277c-0.488,0-0.934-0.079-1.344-0.238c-0.409-0.16-0.763-0.374-1.061-0.646c-0.296-0.271-0.528-0.589-0.692-0.955
		c-0.167-0.367-0.25-0.76-0.25-1.178v-0.019c0-0.419,0.085-0.813,0.253-1.178c0.168-0.366,0.4-0.688,0.699-0.966
		c0.298-0.274,0.652-0.494,1.064-0.654c0.413-0.157,0.861-0.237,1.348-0.237c0.488,0,0.937,0.08,1.346,0.237
		c0.409,0.16,0.763,0.376,1.061,0.647c0.298,0.27,0.529,0.59,0.692,0.956c0.166,0.365,0.25,0.759,0.25,1.178v0.017
		c0,0.419-0.084,0.813-0.254,1.179c-0.167,0.367-0.4,0.688-0.699,0.965c-0.297,0.277-0.651,0.494-1.064,0.654
		C423.028,67.198,422.577,67.277,422.091,67.277L422.091,67.277z"/>
</g>
</svg>
